<svg width="38" height="38" viewBox="0 0 38 38" fill="none" xmlns="http://www.w3.org/2000/svg">
<path d="M19 3.5625C10.4745 3.5625 3.5625 10.4745 3.5625 19C3.5625 27.5121 10.4886 34.4375 19 34.4375C27.5248 34.4375 34.4375 27.5248 34.4375 19C34.4375 10.4879 27.5121 3.5625 19 3.5625ZM27.0156 21.375H18.1094C18.0306 21.375 17.9551 21.3437 17.8995 21.288C17.8438 21.2324 17.8125 21.1569 17.8125 21.0781V8.60938C17.8125 8.53064 17.8438 8.45513 17.8995 8.39945C17.9551 8.34378 18.0306 8.3125 18.1094 8.3125H19.8906C19.9694 8.3125 20.0449 8.34378 20.1005 8.39945C20.1562 8.45513 20.1875 8.53064 20.1875 8.60938V19H27.0156C27.0944 19 27.1699 19.0313 27.2255 19.087C27.2812 19.1426 27.3125 19.2181 27.3125 19.2969V21.0781C27.3125 21.1569 27.2812 21.2324 27.2255 21.288C27.1699 21.3437 27.0944 21.375 27.0156 21.375Z" fill="#152D07"/>
</svg>
