<svg width="38" height="38" viewBox="0 0 38 38" fill="none" xmlns="http://www.w3.org/2000/svg">
<path d="M19.0003 18.2087C17.9505 18.2087 16.9437 17.7916 16.2014 17.0493C15.459 16.307 15.042 15.3001 15.042 14.2503C15.042 13.2005 15.459 12.1937 16.2014 11.4514C16.9437 10.709 17.9505 10.292 19.0003 10.292C20.0501 10.292 21.057 10.709 21.7993 11.4514C22.5416 12.1937 22.9587 13.2005 22.9587 14.2503C22.9587 14.7701 22.8563 15.2849 22.6573 15.7651C22.4584 16.2454 22.1669 16.6817 21.7993 17.0493C21.4317 17.4169 20.9954 17.7084 20.5151 17.9073C20.0349 18.1063 19.5201 18.2087 19.0003 18.2087ZM19.0003 3.16699C16.0608 3.16699 13.2418 4.3347 11.1632 6.41323C9.0847 8.49175 7.91699 11.3108 7.91699 14.2503C7.91699 22.5628 19.0003 34.8337 19.0003 34.8337C19.0003 34.8337 30.0837 22.5628 30.0837 14.2503C30.0837 11.3108 28.916 8.49175 26.8374 6.41323C24.7589 4.3347 21.9398 3.16699 19.0003 3.16699Z" fill="#152D07"/>
</svg>
