<svg width="38" height="38" viewBox="0 0 38 38" fill="none" xmlns="http://www.w3.org/2000/svg">
<path d="M26.7851 21.1752L32.6593 27.0509L33.3464 26.3574C34.2426 25.4613 34.2426 23.8953 33.3464 22.9992L30.8353 20.488C30.3856 20.0383 29.7887 19.7913 29.1553 19.7913C28.522 19.7913 27.9251 20.0383 27.477 20.4848L26.7851 21.1752ZM17.5131 10.5225C18.4093 9.62634 18.4093 8.06042 17.5131 7.16426L15.0019 4.65309C14.5523 4.20501 13.9553 3.95801 13.322 3.95801C12.6887 3.95801 12.0918 4.20501 11.6405 4.65626L10.9565 5.34817L16.8196 11.2113L17.5131 10.5225ZM30.5123 29.1916L31.0728 28.6311L25.2018 22.7601L24.1742 23.7893C24.1006 23.863 24.0133 23.9215 23.9171 23.9614C23.8209 24.0013 23.7178 24.0218 23.6137 24.0218C23.5095 24.0218 23.4064 24.0013 23.3103 23.9614C23.2141 23.9215 23.1267 23.863 23.0532 23.7893L14.2087 14.9448C14.0651 14.7938 13.9851 14.5934 13.9851 14.385C13.9851 14.1767 14.0651 13.9763 14.2087 13.8253L15.2378 12.7962L9.36368 6.93467L8.80318 7.49517C8.39151 7.90684 7.0536 9.46801 7.0536 12.3338C7.0536 14.8925 8.18093 19.0725 13.5532 24.4463C24.2803 35.1703 30.2573 29.4465 30.5123 29.1916Z" fill="#152D07"/>
</svg>
