<svg width="25" height="25" viewBox="0 0 25 25" fill="none" xmlns="http://www.w3.org/2000/svg">
<path d="M13.0281 1.9003C13.7578 1.89082 14.4876 1.89147 15.2172 1.90226L15.4113 1.90749C15.6354 1.91343 15.8564 1.92141 16.1235 1.93097C17.1879 1.97123 17.9155 2.13258 18.5547 2.37374C19.217 2.62168 19.7761 2.96058 20.3372 3.51147C20.8501 4.0064 21.2491 4.60712 21.5063 5.27184C21.7592 5.90656 21.9338 6.63199 21.9935 7.69549C22.008 7.96136 22.02 8.18326 22.0301 8.40718L22.0378 8.60112C22.0623 9.33012 22.0766 10.0594 22.0809 10.7888L22.0887 11.5348L22.1007 12.8447C22.1098 13.5744 22.1088 14.3042 22.0977 15.0338L22.0935 15.2279C22.0875 15.452 22.0796 15.673 22.07 15.9401C22.0297 17.0045 21.8664 17.7321 21.6262 18.3713C21.382 19.0413 20.994 19.6497 20.4895 20.1538C19.9941 20.6666 19.3931 21.0656 18.7281 21.3229C18.0934 21.5758 17.369 21.7504 16.3055 21.8101C16.0386 21.8246 15.8177 21.8366 15.5938 21.8466L15.3998 21.8544C14.6705 21.8789 13.9409 21.8932 13.2111 21.8975L12.4652 21.9053L11.1562 21.9173C10.4266 21.9264 9.69678 21.9254 8.96713 21.9143L8.77308 21.9101C8.53562 21.9036 8.2982 21.8958 8.06083 21.8866C6.99642 21.8463 6.2689 21.683 5.62867 21.4428C4.95909 21.1983 4.35107 20.8103 3.84719 20.3061C3.33369 19.8111 2.93435 19.21 2.67702 18.5447C2.4242 17.91 2.24957 17.1856 2.18983 16.1221C2.17652 15.8849 2.16435 15.6477 2.15332 15.4104L2.14654 15.2164C2.12143 14.4871 2.10642 13.7575 2.10151 13.0278L2.08269 10.9718C2.07323 10.2425 2.07388 9.51307 2.08467 8.78374L2.08989 8.58968C2.09584 8.36562 2.10381 8.14354 2.11337 7.87744C2.15362 6.81203 2.31498 6.08552 2.55613 5.44528C2.80139 4.77563 3.19043 4.16787 3.69588 3.66478C4.1901 3.15099 4.79053 2.7513 5.45524 2.49363C6.09095 2.2408 6.81438 2.06617 7.87888 2.00643L8.59058 1.96991L8.78452 1.96314C9.51351 1.93804 10.2428 1.92303 10.9722 1.91811L13.0281 1.9003ZM12.0459 6.90949C11.3834 6.90619 10.7268 7.0346 10.1143 7.28726C9.50179 7.53992 8.94562 7.91179 8.4781 8.38126C8.01057 8.85074 7.64102 9.40845 7.39091 10.022C7.1408 10.6355 7.01513 11.2927 7.02119 11.9552C7.02725 12.6177 7.16493 13.2724 7.42623 13.8813C7.68753 14.4902 8.06723 15.041 8.54327 15.5019C9.01931 15.9627 9.58219 16.3243 10.1992 16.5657C10.8162 16.8071 11.4751 16.9235 12.1374 16.9081C13.4635 16.8959 14.7304 16.3575 15.6594 15.4113C16.5885 14.4651 17.1036 13.1886 17.0915 11.8625C17.0793 10.5365 16.5409 9.2696 15.5947 8.34054C14.6485 7.41148 13.372 6.89736 12.0459 6.90949ZM12.0642 8.90941C12.4627 8.89842 12.8593 8.96693 13.2309 9.11095C13.6026 9.25496 13.9418 9.47159 14.2288 9.74818C14.5158 10.0248 14.7448 10.3558 14.9024 10.7219C15.06 11.0879 15.1431 11.4818 15.1468 11.8803C15.1505 12.2789 15.0748 12.6742 14.924 13.0431C14.7732 13.4121 14.5505 13.7473 14.2687 14.0292C13.9869 14.3111 13.6518 14.534 13.2829 14.6849C12.914 14.8358 12.5187 14.9117 12.1201 14.9082C11.3245 14.9154 10.5586 14.6064 9.99086 14.0489C9.42313 13.4915 9.10009 12.7313 9.09281 11.9357C9.08553 11.1401 9.3946 10.3742 9.95204 9.80646C10.5095 9.23872 11.2696 8.91568 12.0652 8.9084L12.0642 8.90941ZM17.282 5.36151C16.9595 5.37737 16.6557 5.5174 16.4341 5.75226C16.2126 5.98711 16.0905 6.29859 16.0935 6.62144C16.0964 6.94429 16.2242 7.25348 16.45 7.48424C16.6758 7.715 16.9821 7.84944 17.3048 7.8594C17.6364 7.85637 17.9531 7.72177 18.1853 7.48521C18.4176 7.24866 18.5464 6.92952 18.5434 6.59802C18.5403 6.26651 18.4057 5.94979 18.1692 5.71752C17.9326 5.48526 17.6135 5.35647 17.282 5.35951L17.282 5.36151Z" fill="#535353"/>
</svg>
