<svg width="70" height="44" viewBox="0 0 70 44" fill="none" xmlns="http://www.w3.org/2000/svg">
<mask id="mask0_316_18504" style="mask-type:luminance" maskUnits="userSpaceOnUse" x="0" y="0" width="70" height="44">
<path d="M0 0.000148773H69.9998V44H0V0.000148773Z" fill="white"/>
</mask>
<g mask="url(#mask0_316_18504)">
<path d="M67.3802 11.4939C66.6668 11.4741 65.9376 11.4909 65.2374 11.6148C61.8894 12.207 58.7952 13.5447 55.7073 14.8944C55.5015 14.9844 55.2882 15.0623 55.0604 15.1451C54.9339 15.191 54.8042 15.238 54.6657 15.2903L51.8103 16.5801C51.7348 16.6617 51.6536 16.7376 51.571 16.8038C51.5206 16.8442 51.4699 16.8821 51.4197 16.9146C49.6157 18.0816 47.6978 19.0867 45.962 20.3426C43.0312 22.4632 40.4783 24.9973 38.8434 28.2601C38.2766 29.3913 37.9307 30.7148 37.8362 31.9767C37.7685 32.8797 38.0854 33.6101 38.6375 34.085L40.317 32.3581C40.0221 32.2485 39.9553 31.8744 40.1019 31.2478C40.1653 30.9769 40.2281 30.6998 40.3402 30.447C42.5516 25.4577 46.609 22.319 51.1264 19.6431C51.2331 19.6006 51.5094 19.2959 51.561 19.3322L54.6304 17.9525C54.6588 17.935 54.6876 17.9198 54.7167 17.9075C54.7817 17.8802 54.8469 17.8532 54.912 17.8259C57.8062 16.6129 60.7175 15.4385 63.6444 14.3053C64.3807 14.0202 65.195 13.934 66.1512 13.7159C66.111 14.2738 66.1376 14.5901 66.0597 14.8785C65.3397 17.5394 64.7937 20.2663 63.8327 22.8395C61.0249 30.3577 56.3661 36.4215 49.1905 40.3699C48.005 41.0223 47.6806 41.5399 48.0434 42.2542C48.4185 42.9924 49.104 43.0437 50.3059 42.3589C61.7719 35.8248 66.961 25.428 68.6334 12.88C68.7441 12.0491 68.2501 11.5181 67.3802 11.4939Z" fill="#18393B"/>
<path d="M51.5613 19.3319C51.5781 19.3438 51.548 19.4399 51.5087 19.5448C51.4617 19.6701 51.4015 19.808 51.3922 19.8298C51.1768 20.4991 50.9906 21.1793 50.7414 21.8359C49.4025 25.3628 47.4451 28.4612 44.2672 30.6362C43.3265 31.2799 42.2699 31.785 41.2114 32.2217C40.8081 32.3881 40.5129 32.4306 40.3173 32.3579L38.6377 34.0847C38.6471 34.0928 38.6563 34.1009 38.6657 34.1088C39.2692 34.6112 40.1434 34.8146 41.1117 34.6044C43.7009 34.0425 45.7977 32.5928 47.6654 30.807C51.0945 27.5283 52.916 23.3916 54.021 18.8764C54.0645 18.6987 54.1557 18.4965 54.2738 18.32C54.3572 18.1955 54.454 18.0837 54.5579 18.0028C54.5818 17.9842 54.6061 17.9674 54.6306 17.9523L51.5613 19.3319Z" fill="#DBDFA9"/>
<path d="M54.66 13.5687C54.5259 11.6549 54.6327 9.67703 54.1705 7.84238C52.937 2.94624 49.8078 -0.218466 44.0917 1.23959C41.4672 1.90901 38.8839 2.74598 36.3036 3.57379C35.4225 3.85641 34.6398 3.83922 33.7627 3.5615C31.0899 2.71541 28.4213 1.82599 25.6967 1.17979C21.5256 0.190622 18.7603 1.54126 16.817 5.33595C16.3969 6.1562 15.992 7.05027 15.8807 7.94725C15.6333 9.93973 15.5716 11.9553 15.4452 13.9623C15.4193 14.3745 15.4414 14.7898 15.4414 15.3391L18.244 16.5534C18.0715 16.3682 17.9403 16.1592 17.9116 15.9651C17.5372 13.4347 17.3838 10.8646 18.0821 8.38215C19.2581 4.20069 21.2523 2.90803 24.1931 3.21788C24.7802 3.27968 25.375 3.36907 25.9383 3.53773C29.5519 4.62003 33.1522 5.74624 36.7681 6.82086C39.0394 7.49593 41.3265 8.11956 43.6142 8.73788C44.2946 8.92177 44.954 8.86659 45.2149 8.05038C45.4453 7.32955 45.1017 6.81141 44.2261 6.54598C43.4806 6.31996 42.7238 6.13064 41.9726 5.92246C41.1234 5.68706 40.2751 5.44875 39.4264 5.2117C39.4282 5.10567 39.43 4.99964 39.4319 4.89349C41.1899 4.39411 42.9244 3.77942 44.7108 3.4193C48.4512 2.66532 50.4049 3.83093 51.7199 7.41599C51.8583 7.79349 51.9719 8.18317 52.0593 8.5755C52.6002 11.0035 52.5285 13.4509 52.1906 15.8898C52.1586 16.1205 52.0041 16.3701 51.8101 16.5801L54.6655 15.2903C54.6655 14.614 54.6965 14.089 54.66 13.5687Z" fill="#DBDFA9"/>
<path d="M29.1593 32.3263C28.6218 32.1836 28.096 31.9619 27.5992 31.7088C23.4119 29.5761 20.9354 26.0256 19.3246 21.7717C19.1057 21.1937 18.9451 20.5934 18.77 19.9997C18.7478 19.9244 18.6889 19.5699 18.66 19.347L15.3896 17.9238C15.8555 18.2937 16.1054 18.8101 16.2754 19.5127C17.4099 24.2005 19.5003 28.3814 23.2662 31.5682C24.9691 33.0093 26.8384 34.193 29.0801 34.634C30.0371 34.8222 30.8964 34.5812 31.4814 34.0378L29.9265 32.2556C29.7731 32.3923 29.5118 32.4198 29.1593 32.3263Z" fill="#DBDFA9"/>
<path d="M14.3579 14.8882C12.3592 14.0934 10.3999 13.1693 8.34806 12.547C6.57728 12.0101 4.71145 11.7309 2.86693 11.5059C1.80398 11.3762 1.32813 12.042 1.47395 13.087C1.63242 14.2231 1.76701 15.3656 1.99529 16.4885C3.7031 24.8908 7.21786 32.3621 13.7862 38.1092C15.7838 39.8571 18.1592 41.1816 20.3817 42.6704C20.9919 43.0792 21.6202 42.9554 21.9923 42.3085C22.3888 41.6192 22.1184 41.0574 21.4538 40.6695C21.2654 40.5596 21.0546 40.4835 20.8778 40.3587C18.9714 39.0133 16.9155 37.8305 15.1946 36.2806C9.00071 30.7017 5.74053 23.522 4.14768 15.4974C4.04323 14.9712 4.00724 14.4318 3.92502 13.7856C4.43532 13.8607 4.78902 13.8535 5.0974 13.9674C8.2803 15.143 11.449 16.3567 14.6375 17.5169C14.938 17.6262 15.1847 17.7608 15.3898 17.9236L18.6602 19.3468C23.0073 21.8366 26.9047 25.0515 29.2694 29.4112C29.62 30.0575 29.8586 30.7814 30.0379 31.497C30.1282 31.8578 30.0847 32.1145 29.9267 32.2554L31.4816 34.0375C31.9834 33.5714 32.2833 32.8827 32.2691 32.051C32.2541 31.1708 32.1597 30.1984 31.7676 29.4375C30.948 27.8468 30.0488 26.2558 28.9288 24.8668C26.1908 21.4712 22.6797 19.0001 18.8155 16.9946C18.6237 16.8951 18.4141 16.7358 18.2444 16.5536L15.4418 15.3393C14.9782 15.146 14.67 15.0123 14.3579 14.8882Z" fill="#18393B"/>
</g>
</svg>
