<svg width="21" height="21" viewBox="0 0 21 21" fill="none" xmlns="http://www.w3.org/2000/svg">
<path d="M10.7364 0.109651C5.21666 0.16017 0.777848 4.68098 0.828368 10.2008C0.878888 15.7205 5.3997 20.1593 10.9195 20.1088C16.4392 20.0583 20.878 15.5375 20.8275 10.0177C20.777 4.49794 16.2562 0.0591312 10.7364 0.109651ZM15.4385 6.8669C15.3029 8.44821 14.6881 12.294 14.3743 14.0669C14.2412 14.8182 13.9635 15.0707 13.7038 15.1031C13.1243 15.1584 12.6803 14.7325 12.117 14.3676C11.2317 13.7957 10.7284 13.4403 9.87334 12.8881C8.87743 12.2472 9.51411 11.8813 10.0788 11.2961C10.2274 11.1448 12.766 8.79144 12.814 8.58099C12.8207 8.54912 12.8195 8.51611 12.8105 8.48482C12.8015 8.45354 12.785 8.42492 12.7624 8.40146C12.7019 8.35201 12.6221 8.37274 12.5522 8.38338C12.4624 8.4042 11.071 9.34698 8.35794 11.2119C7.96043 11.4855 7.60172 11.6288 7.28164 11.6218C6.92157 11.615 6.23986 11.4313 5.72832 11.266C5.09652 11.0717 4.60553 10.9662 4.64233 10.6159C4.66068 10.4357 4.90902 10.2534 5.37726 10.0591C8.28552 8.76244 10.2177 7.90472 11.184 7.49586C13.9533 6.31047 14.5215 6.10526 14.9014 6.10178C14.9814 6.10105 15.1716 6.11931 15.2925 6.21821C15.3933 6.29729 15.4243 6.40701 15.435 6.48692C15.4255 6.54701 15.4472 6.72681 15.4385 6.8669Z" fill="#535353"/>
</svg>
