<svg width="122" height="29" viewBox="0 0 122 29" fill="none" xmlns="http://www.w3.org/2000/svg">
<path d="M8.89893 5.12891V23H6.64062V7.94873L2.0874 9.60889V7.57031L8.54492 5.12891H8.89893ZM26.6968 12.6973V15.4072C26.6968 16.8639 26.5666 18.0928 26.3062 19.0938C26.0457 20.0947 25.6714 20.9004 25.1831 21.5107C24.6948 22.1211 24.1048 22.5646 23.4131 22.8413C22.7295 23.1099 21.9564 23.2441 21.0938 23.2441C20.4102 23.2441 19.7795 23.1587 19.2017 22.9878C18.6239 22.8169 18.103 22.5443 17.6392 22.1699C17.1834 21.7874 16.7928 21.291 16.4673 20.6807C16.1418 20.0703 15.8936 19.3298 15.7227 18.459C15.5518 17.5882 15.4663 16.571 15.4663 15.4072V12.6973C15.4663 11.2406 15.5965 10.0199 15.8569 9.03516C16.1255 8.05046 16.5039 7.26107 16.9922 6.66699C17.4805 6.06478 18.0664 5.63346 18.75 5.37305C19.4417 5.11263 20.2148 4.98242 21.0693 4.98242C21.7611 4.98242 22.3958 5.06787 22.9736 5.23877C23.5596 5.40153 24.0804 5.66602 24.5361 6.03223C24.9919 6.3903 25.3784 6.87044 25.6958 7.47266C26.0213 8.06673 26.2695 8.79508 26.4404 9.65771C26.6113 10.5203 26.6968 11.5335 26.6968 12.6973ZM24.4263 15.7734V12.3188C24.4263 11.5213 24.3774 10.8215 24.2798 10.2192C24.1903 9.60889 24.056 9.08805 23.877 8.65674C23.6979 8.22542 23.4701 7.87549 23.1934 7.60693C22.9248 7.33838 22.6115 7.14307 22.2534 7.021C21.9035 6.89079 21.5088 6.82568 21.0693 6.82568C20.5322 6.82568 20.0562 6.92741 19.6411 7.13086C19.2261 7.32617 18.8761 7.63949 18.5913 8.0708C18.3146 8.50212 18.103 9.06771 17.9565 9.76758C17.8101 10.4674 17.7368 11.3179 17.7368 12.3188V15.7734C17.7368 16.571 17.7816 17.2749 17.8711 17.8853C17.9688 18.4956 18.1112 19.0246 18.2983 19.4722C18.4855 19.9116 18.7134 20.2738 18.9819 20.5586C19.2505 20.8434 19.5597 21.055 19.9097 21.1934C20.2677 21.3236 20.6624 21.3887 21.0938 21.3887C21.6471 21.3887 22.1313 21.2829 22.5464 21.0713C22.9614 20.8597 23.3073 20.5301 23.584 20.0825C23.8688 19.6268 24.0804 19.0449 24.2188 18.3369C24.3571 17.6208 24.4263 16.7663 24.4263 15.7734ZM46.9604 12.6973V15.4072C46.9604 16.8639 46.8302 18.0928 46.5698 19.0938C46.3094 20.0947 45.9351 20.9004 45.4468 21.5107C44.9585 22.1211 44.3685 22.5646 43.6768 22.8413C42.9932 23.1099 42.2201 23.2441 41.3574 23.2441C40.6738 23.2441 40.0431 23.1587 39.4653 22.9878C38.8875 22.8169 38.3667 22.5443 37.9028 22.1699C37.4471 21.7874 37.0565 21.291 36.731 20.6807C36.4054 20.0703 36.1572 19.3298 35.9863 18.459C35.8154 17.5882 35.73 16.571 35.73 15.4072V12.6973C35.73 11.2406 35.8602 10.0199 36.1206 9.03516C36.3892 8.05046 36.7676 7.26107 37.2559 6.66699C37.7441 6.06478 38.3301 5.63346 39.0137 5.37305C39.7054 5.11263 40.4785 4.98242 41.333 4.98242C42.0247 4.98242 42.6595 5.06787 43.2373 5.23877C43.8232 5.40153 44.3441 5.66602 44.7998 6.03223C45.2555 6.3903 45.6421 6.87044 45.9595 7.47266C46.285 8.06673 46.5332 8.79508 46.7041 9.65771C46.875 10.5203 46.9604 11.5335 46.9604 12.6973ZM44.6899 15.7734V12.3188C44.6899 11.5213 44.6411 10.8215 44.5435 10.2192C44.4539 9.60889 44.3197 9.08805 44.1406 8.65674C43.9616 8.22542 43.7337 7.87549 43.457 7.60693C43.1885 7.33838 42.8752 7.14307 42.5171 7.021C42.1672 6.89079 41.7725 6.82568 41.333 6.82568C40.7959 6.82568 40.3198 6.92741 39.9048 7.13086C39.4897 7.32617 39.1398 7.63949 38.855 8.0708C38.5783 8.50212 38.3667 9.06771 38.2202 9.76758C38.0737 10.4674 38.0005 11.3179 38.0005 12.3188V15.7734C38.0005 16.571 38.0452 17.2749 38.1348 17.8853C38.2324 18.4956 38.3748 19.0246 38.562 19.4722C38.7492 19.9116 38.9771 20.2738 39.2456 20.5586C39.5142 20.8434 39.8234 21.055 40.1733 21.1934C40.5314 21.3236 40.9261 21.3887 41.3574 21.3887C41.9108 21.3887 42.395 21.2829 42.8101 21.0713C43.2251 20.8597 43.571 20.5301 43.8477 20.0825C44.1325 19.6268 44.3441 19.0449 44.4824 18.3369C44.6208 17.6208 44.6899 16.7663 44.6899 15.7734ZM61.0229 12.6973V15.4072C61.0229 16.8639 60.8927 18.0928 60.6323 19.0938C60.3719 20.0947 59.9976 20.9004 59.5093 21.5107C59.021 22.1211 58.431 22.5646 57.7393 22.8413C57.0557 23.1099 56.2826 23.2441 55.4199 23.2441C54.7363 23.2441 54.1056 23.1587 53.5278 22.9878C52.95 22.8169 52.4292 22.5443 51.9653 22.1699C51.5096 21.7874 51.119 21.291 50.7935 20.6807C50.4679 20.0703 50.2197 19.3298 50.0488 18.459C49.8779 17.5882 49.7925 16.571 49.7925 15.4072V12.6973C49.7925 11.2406 49.9227 10.0199 50.1831 9.03516C50.4517 8.05046 50.8301 7.26107 51.3184 6.66699C51.8066 6.06478 52.3926 5.63346 53.0762 5.37305C53.7679 5.11263 54.541 4.98242 55.3955 4.98242C56.0872 4.98242 56.722 5.06787 57.2998 5.23877C57.8857 5.40153 58.4066 5.66602 58.8623 6.03223C59.318 6.3903 59.7046 6.87044 60.022 7.47266C60.3475 8.06673 60.5957 8.79508 60.7666 9.65771C60.9375 10.5203 61.0229 11.5335 61.0229 12.6973ZM58.7524 15.7734V12.3188C58.7524 11.5213 58.7036 10.8215 58.606 10.2192C58.5164 9.60889 58.3822 9.08805 58.2031 8.65674C58.0241 8.22542 57.7962 7.87549 57.5195 7.60693C57.251 7.33838 56.9377 7.14307 56.5796 7.021C56.2297 6.89079 55.835 6.82568 55.3955 6.82568C54.8584 6.82568 54.3823 6.92741 53.9673 7.13086C53.5522 7.32617 53.2023 7.63949 52.9175 8.0708C52.6408 8.50212 52.4292 9.06771 52.2827 9.76758C52.1362 10.4674 52.063 11.3179 52.063 12.3188V15.7734C52.063 16.571 52.1077 17.2749 52.1973 17.8853C52.2949 18.4956 52.4373 19.0246 52.6245 19.4722C52.8117 19.9116 53.0396 20.2738 53.3081 20.5586C53.5767 20.8434 53.8859 21.055 54.2358 21.1934C54.5939 21.3236 54.9886 21.3887 55.4199 21.3887C55.9733 21.3887 56.4575 21.2829 56.8726 21.0713C57.2876 20.8597 57.6335 20.5301 57.9102 20.0825C58.195 19.6268 58.4066 19.0449 58.5449 18.3369C58.6833 17.6208 58.7524 16.7663 58.7524 15.7734ZM75.0854 12.6973V15.4072C75.0854 16.8639 74.9552 18.0928 74.6948 19.0938C74.4344 20.0947 74.0601 20.9004 73.5718 21.5107C73.0835 22.1211 72.4935 22.5646 71.8018 22.8413C71.1182 23.1099 70.3451 23.2441 69.4824 23.2441C68.7988 23.2441 68.1681 23.1587 67.5903 22.9878C67.0125 22.8169 66.4917 22.5443 66.0278 22.1699C65.5721 21.7874 65.1815 21.291 64.856 20.6807C64.5304 20.0703 64.2822 19.3298 64.1113 18.459C63.9404 17.5882 63.855 16.571 63.855 15.4072V12.6973C63.855 11.2406 63.9852 10.0199 64.2456 9.03516C64.5142 8.05046 64.8926 7.26107 65.3809 6.66699C65.8691 6.06478 66.4551 5.63346 67.1387 5.37305C67.8304 5.11263 68.6035 4.98242 69.458 4.98242C70.1497 4.98242 70.7845 5.06787 71.3623 5.23877C71.9482 5.40153 72.4691 5.66602 72.9248 6.03223C73.3805 6.3903 73.7671 6.87044 74.0845 7.47266C74.41 8.06673 74.6582 8.79508 74.8291 9.65771C75 10.5203 75.0854 11.5335 75.0854 12.6973ZM72.8149 15.7734V12.3188C72.8149 11.5213 72.7661 10.8215 72.6685 10.2192C72.5789 9.60889 72.4447 9.08805 72.2656 8.65674C72.0866 8.22542 71.8587 7.87549 71.582 7.60693C71.3135 7.33838 71.0002 7.14307 70.6421 7.021C70.2922 6.89079 69.8975 6.82568 69.458 6.82568C68.9209 6.82568 68.4448 6.92741 68.0298 7.13086C67.6147 7.32617 67.2648 7.63949 66.98 8.0708C66.7033 8.50212 66.4917 9.06771 66.3452 9.76758C66.1987 10.4674 66.1255 11.3179 66.1255 12.3188V15.7734C66.1255 16.571 66.1702 17.2749 66.2598 17.8853C66.3574 18.4956 66.4998 19.0246 66.687 19.4722C66.8742 19.9116 67.1021 20.2738 67.3706 20.5586C67.6392 20.8434 67.9484 21.055 68.2983 21.1934C68.6564 21.3236 69.0511 21.3887 69.4824 21.3887C70.0358 21.3887 70.52 21.2829 70.9351 21.0713C71.3501 20.8597 71.696 20.5301 71.9727 20.0825C72.2575 19.6268 72.4691 19.0449 72.6074 18.3369C72.7458 17.6208 72.8149 16.7663 72.8149 15.7734ZM92.9688 9.79199V11.6597H86.8652V23H84.6069V9.79199H92.9688ZM97.1924 12.3311V28.0781H94.9219V9.79199H96.9971L97.1924 12.3311ZM106.091 16.2861V16.5425C106.091 17.5028 105.977 18.3939 105.75 19.2158C105.522 20.0296 105.188 20.7376 104.749 21.3398C104.317 21.9421 103.784 22.41 103.149 22.7437C102.515 23.0773 101.786 23.2441 100.964 23.2441C100.126 23.2441 99.3856 23.1058 98.7427 22.8291C98.0998 22.5524 97.5545 22.1496 97.1069 21.6206C96.6593 21.0916 96.3013 20.4569 96.0327 19.7163C95.7723 18.9757 95.5933 18.1416 95.4956 17.2139V15.8467C95.5933 14.8701 95.7764 13.9953 96.0449 13.2222C96.3135 12.4491 96.6675 11.7899 97.1069 11.2446C97.5545 10.6912 98.0957 10.2721 98.7305 9.9873C99.3652 9.69434 100.098 9.54785 100.928 9.54785C101.758 9.54785 102.494 9.71061 103.137 10.0361C103.78 10.3535 104.321 10.8092 104.761 11.4033C105.2 11.9974 105.53 12.7095 105.75 13.5396C105.977 14.3615 106.091 15.277 106.091 16.2861ZM103.821 16.5425V16.2861C103.821 15.627 103.752 15.0085 103.613 14.4307C103.475 13.8447 103.259 13.332 102.966 12.8926C102.681 12.445 102.315 12.0951 101.868 11.8428C101.42 11.5824 100.887 11.4521 100.269 11.4521C99.6989 11.4521 99.2025 11.5498 98.7793 11.7451C98.3643 11.9404 98.0103 12.2049 97.7173 12.5386C97.4243 12.8641 97.1842 13.2384 96.9971 13.6616C96.818 14.0767 96.6838 14.508 96.5942 14.9556V18.1172C96.757 18.6868 96.9849 19.224 97.2778 19.7285C97.5708 20.2249 97.9614 20.6278 98.4497 20.937C98.938 21.2381 99.5524 21.3887 100.293 21.3887C100.903 21.3887 101.428 21.2625 101.868 21.0103C102.315 20.7498 102.681 20.3958 102.966 19.9482C103.259 19.5007 103.475 18.988 103.613 18.4102C103.752 17.8242 103.821 17.2017 103.821 16.5425ZM117.932 15.5171V17.3481H110.95V15.5171H117.932ZM111.426 9.79199V23H109.167V9.79199H111.426ZM119.763 9.79199V23H117.493V9.79199H119.763Z" fill="black"/>
<line y1="14" x2="122" y2="14" stroke="#FFFFD1" stroke-width="2"/>
</svg>
