<svg width="120" height="40" viewBox="0 0 120 40" fill="none" xmlns="http://www.w3.org/2000/svg">
<rect x="0.5" y="0.5" width="119" height="39" rx="19.5" stroke="#6B6B6B"/>
<path d="M21.5117 21.2285H20.0557V20.1963H21.2588C21.6553 20.1963 21.9743 20.137 22.2158 20.0186C22.4574 19.9001 22.6351 19.7337 22.749 19.5195C22.863 19.3008 22.9199 19.0479 22.9199 18.7607C22.9199 18.5146 22.8561 18.2868 22.7285 18.0771C22.6055 17.8675 22.4141 17.7012 22.1543 17.5781C21.8945 17.4551 21.5618 17.3936 21.1562 17.3936C20.8509 17.3936 20.5729 17.4482 20.3223 17.5576C20.0716 17.6624 19.8734 17.8151 19.7275 18.0156C19.5817 18.2116 19.5088 18.4463 19.5088 18.7197H17.6289C17.6289 18.2822 17.7223 17.8926 17.9092 17.5508C18.096 17.2044 18.3512 16.9105 18.6748 16.6689C19.0029 16.4229 19.3789 16.236 19.8027 16.1084C20.2311 15.9808 20.6823 15.917 21.1562 15.917C21.7077 15.917 22.2067 15.9785 22.6533 16.1016C23.1045 16.2201 23.4896 16.3978 23.8086 16.6348C24.1276 16.8717 24.3714 17.1657 24.54 17.5166C24.7132 17.8675 24.7998 18.2754 24.7998 18.7402C24.7998 19.082 24.7223 19.4033 24.5674 19.7041C24.4124 20.0049 24.1891 20.2692 23.8975 20.4971C23.6104 20.7249 23.264 20.9049 22.8584 21.0371C22.4574 21.1647 22.0085 21.2285 21.5117 21.2285ZM20.0557 20.6338H21.5117C22.0586 20.6338 22.5439 20.6908 22.9678 20.8047C23.3962 20.9186 23.7562 21.085 24.0479 21.3037C24.3441 21.5225 24.5697 21.7936 24.7246 22.1172C24.8796 22.4362 24.957 22.8031 24.957 23.2178C24.957 23.6826 24.8636 24.0951 24.6768 24.4551C24.4899 24.8151 24.2256 25.1204 23.8838 25.3711C23.5465 25.6217 23.1455 25.8109 22.6807 25.9385C22.2158 26.0661 21.7077 26.1299 21.1562 26.1299C20.7096 26.1299 20.2676 26.0752 19.8301 25.9658C19.3971 25.8519 19.0029 25.6787 18.6475 25.4463C18.2965 25.2139 18.014 24.9154 17.7998 24.5508C17.5902 24.1862 17.4854 23.7487 17.4854 23.2383H19.3721C19.3721 23.5026 19.4473 23.7441 19.5977 23.9629C19.748 24.1771 19.9577 24.348 20.2266 24.4756C20.4954 24.5986 20.8053 24.6602 21.1562 24.6602C21.5618 24.6602 21.9059 24.5986 22.1885 24.4756C22.4756 24.348 22.6943 24.1725 22.8447 23.9492C22.9951 23.7259 23.0703 23.4775 23.0703 23.2041C23.0703 22.9261 23.0316 22.6891 22.9541 22.4932C22.8766 22.2972 22.7604 22.1377 22.6055 22.0146C22.4551 21.887 22.266 21.7936 22.0381 21.7344C21.8148 21.6751 21.555 21.6455 21.2588 21.6455H20.0557V20.6338ZM31.4375 21.6387V23.0537H27.6436V21.6387H31.4375ZM28.2109 18.6035V26H26.3994V18.6035H28.2109ZM32.7021 18.6035V26H30.8838V18.6035H32.7021ZM36.168 23.4229L38.8613 18.6035H40.6729V26H38.8613V21.1738L36.168 26H34.3564V18.6035H36.168V23.4229ZM44.8359 23.1152L41.8281 18.6035H44.0566L45.7041 21.4541H47.1328L46.9072 23.1152H44.8359ZM45.7383 22.8281L43.9473 26H41.7529L44.3164 21.8848L45.7383 22.8281ZM48.2676 18.6035V26H46.4629V18.6035H48.2676ZM52.9229 18.6035L49.9082 23.1152H47.8369L47.6113 21.4541H49.04L50.6875 18.6035H52.9229ZM50.7969 26L49.0059 22.8281L50.4756 21.8848L53.0322 26H50.7969ZM55.958 18.6035V26H54.1533V18.6035H55.958ZM60.7773 18.6035L57.5166 23.1426H55.5957L55.3701 21.4883H56.7031L58.501 18.6035H60.7773ZM58.6104 26L56.5869 22.8281L58.0908 21.8848L61.0098 26H58.6104ZM65.9111 24.4277V21.0166C65.9111 20.766 65.8678 20.5495 65.7812 20.3672C65.6947 20.1849 65.5625 20.0436 65.3848 19.9434C65.207 19.8431 64.9814 19.793 64.708 19.793C64.4665 19.793 64.2546 19.834 64.0723 19.916C63.8945 19.998 63.7578 20.1143 63.6621 20.2646C63.5664 20.4105 63.5186 20.5791 63.5186 20.7705H61.707C61.707 20.4652 61.7799 20.1758 61.9258 19.9023C62.0716 19.6243 62.279 19.3783 62.5479 19.1641C62.8213 18.9453 63.1471 18.7744 63.5254 18.6514C63.9082 18.5283 64.3366 18.4668 64.8105 18.4668C65.3711 18.4668 65.8701 18.5625 66.3076 18.7539C66.7497 18.9408 67.096 19.2233 67.3467 19.6016C67.6019 19.9798 67.7295 20.4561 67.7295 21.0303V24.2568C67.7295 24.626 67.7523 24.9427 67.7979 25.207C67.848 25.4668 67.9209 25.6924 68.0166 25.8838V26H66.1777C66.0911 25.8132 66.0251 25.5762 65.9795 25.2891C65.9339 24.9974 65.9111 24.7103 65.9111 24.4277ZM66.1641 21.4951L66.1777 22.5684H65.0361C64.7536 22.5684 64.5052 22.598 64.291 22.6572C64.0768 22.7119 63.9014 22.7939 63.7646 22.9033C63.6279 23.0081 63.5254 23.1357 63.457 23.2861C63.3887 23.432 63.3545 23.5983 63.3545 23.7852C63.3545 23.9674 63.3955 24.1315 63.4775 24.2773C63.5641 24.4232 63.6872 24.5394 63.8467 24.626C64.0107 24.708 64.2021 24.749 64.4209 24.749C64.7399 24.749 65.0179 24.6852 65.2549 24.5576C65.4919 24.4255 65.6764 24.266 65.8086 24.0791C65.9408 23.8923 66.0114 23.7145 66.0205 23.5459L66.54 24.3252C66.4762 24.512 66.3805 24.7103 66.2529 24.9199C66.1253 25.1296 65.9613 25.3255 65.7607 25.5078C65.5602 25.6901 65.3187 25.8405 65.0361 25.959C64.7536 26.0775 64.4255 26.1367 64.0518 26.1367C63.5732 26.1367 63.1449 26.041 62.7666 25.8496C62.3883 25.6582 62.0898 25.3962 61.8711 25.0635C61.6523 24.7308 61.543 24.3525 61.543 23.9287C61.543 23.5368 61.6159 23.1904 61.7617 22.8896C61.9076 22.5889 62.124 22.3359 62.4111 22.1309C62.6982 21.9212 63.0537 21.764 63.4775 21.6592C63.9059 21.5498 64.3958 21.4951 64.9473 21.4951H66.1641ZM74.5381 21.4199L73.0957 21.0713L73.6494 16.0469H79.125V17.5439H75.1465L74.8867 19.8682C75.028 19.7816 75.2331 19.695 75.502 19.6084C75.7754 19.5173 76.083 19.4717 76.4248 19.4717C76.8988 19.4717 77.3226 19.5492 77.6963 19.7041C78.07 19.8545 78.3867 20.0732 78.6465 20.3604C78.9108 20.6475 79.109 20.9984 79.2412 21.4131C79.3779 21.8232 79.4463 22.2881 79.4463 22.8076C79.4463 23.2633 79.3779 23.6917 79.2412 24.0928C79.109 24.4893 78.9062 24.8424 78.6328 25.1523C78.3594 25.4577 78.0153 25.6992 77.6006 25.877C77.1859 26.0501 76.6982 26.1367 76.1377 26.1367C75.7139 26.1367 75.306 26.0752 74.9141 25.9521C74.5267 25.8245 74.1781 25.64 73.8682 25.3984C73.5583 25.1523 73.3099 24.8516 73.123 24.4961C72.9408 24.1406 72.8405 23.7327 72.8223 23.2725H74.6064C74.6383 23.5778 74.7204 23.8376 74.8525 24.0518C74.9847 24.266 75.1579 24.43 75.3721 24.5439C75.5908 24.6579 75.8438 24.7148 76.1309 24.7148C76.3906 24.7148 76.6139 24.667 76.8008 24.5713C76.9922 24.471 77.1494 24.332 77.2725 24.1543C77.3955 23.9766 77.4867 23.7669 77.5459 23.5254C77.6051 23.2839 77.6348 23.0195 77.6348 22.7324C77.6348 22.4544 77.6006 22.2015 77.5322 21.9736C77.4639 21.7412 77.359 21.5407 77.2178 21.3721C77.0765 21.2035 76.8988 21.0736 76.6846 20.9824C76.4749 20.8913 76.2288 20.8457 75.9463 20.8457C75.568 20.8457 75.2764 20.9027 75.0713 21.0166C74.8708 21.1305 74.693 21.265 74.5381 21.4199ZM87.335 20.1689V21.8438C87.335 22.6094 87.2575 23.2633 87.1025 23.8057C86.9476 24.348 86.7243 24.7923 86.4326 25.1387C86.141 25.4805 85.7923 25.7334 85.3867 25.8975C84.9811 26.057 84.5299 26.1367 84.0332 26.1367C83.6367 26.1367 83.2676 26.0866 82.9258 25.9863C82.584 25.8815 82.2764 25.722 82.0029 25.5078C81.734 25.2891 81.5016 25.0111 81.3057 24.6738C81.1143 24.3366 80.9661 23.9333 80.8613 23.4639C80.7611 22.9945 80.7109 22.4544 80.7109 21.8438V20.1689C80.7109 19.4033 80.7884 18.7516 80.9434 18.2139C81.1029 17.6761 81.3285 17.2363 81.6201 16.8945C81.9118 16.5527 82.2604 16.3044 82.666 16.1494C83.0716 15.9899 83.5228 15.9102 84.0195 15.9102C84.4206 15.9102 84.7897 15.9603 85.127 16.0605C85.4688 16.1608 85.7741 16.318 86.043 16.5322C86.3164 16.7419 86.5488 17.0153 86.7402 17.3525C86.9316 17.6852 87.0775 18.0863 87.1777 18.5557C87.2826 19.0205 87.335 19.5583 87.335 20.1689ZM85.5303 22.0898V19.916C85.5303 19.5332 85.5075 19.2005 85.4619 18.918C85.4209 18.6309 85.3594 18.387 85.2773 18.1865C85.1953 17.986 85.0928 17.8242 84.9697 17.7012C84.8467 17.5736 84.7054 17.4801 84.5459 17.4209C84.3864 17.3617 84.2109 17.332 84.0195 17.332C83.7826 17.332 83.5706 17.3799 83.3838 17.4756C83.1969 17.5667 83.0397 17.7126 82.9121 17.9131C82.7845 18.1136 82.6865 18.3802 82.6182 18.7129C82.5544 19.041 82.5225 19.4421 82.5225 19.916V22.0898C82.5225 22.4727 82.543 22.8076 82.584 23.0947C82.6296 23.3818 82.6934 23.6279 82.7754 23.833C82.862 24.0381 82.9645 24.2067 83.083 24.3389C83.2061 24.4665 83.3473 24.5622 83.5068 24.626C83.6663 24.6852 83.8418 24.7148 84.0332 24.7148C84.2747 24.7148 84.4867 24.667 84.6689 24.5713C84.8558 24.4756 85.013 24.3252 85.1406 24.1201C85.2682 23.9105 85.3639 23.6393 85.4277 23.3066C85.4961 22.9694 85.5303 22.5638 85.5303 22.0898ZM88.6953 18.4873V17.9609C88.6953 17.5827 88.7773 17.2386 88.9414 16.9287C89.1055 16.6188 89.3447 16.3704 89.6592 16.1836C89.9782 15.9967 90.3656 15.9033 90.8213 15.9033C91.2861 15.9033 91.6758 15.9967 91.9902 16.1836C92.3092 16.3704 92.5485 16.6188 92.708 16.9287C92.8721 17.2386 92.9541 17.5827 92.9541 17.9609V18.4873C92.9541 18.8564 92.8721 19.196 92.708 19.5059C92.5485 19.8158 92.3115 20.0641 91.9971 20.251C91.6826 20.4378 91.2952 20.5312 90.835 20.5312C90.3747 20.5312 89.985 20.4378 89.666 20.251C89.347 20.0641 89.1055 19.8158 88.9414 19.5059C88.7773 19.196 88.6953 18.8564 88.6953 18.4873ZM89.9189 17.9609V18.4873C89.9189 18.6605 89.9508 18.8245 90.0146 18.9795C90.083 19.1299 90.1855 19.2529 90.3223 19.3486C90.459 19.4443 90.6299 19.4922 90.835 19.4922C91.04 19.4922 91.2064 19.4443 91.334 19.3486C91.4661 19.2529 91.5641 19.1299 91.6279 18.9795C91.6963 18.8245 91.7305 18.6605 91.7305 18.4873V17.9609C91.7305 17.7832 91.6963 17.6169 91.6279 17.4619C91.5641 17.307 91.4639 17.1816 91.3271 17.0859C91.195 16.9902 91.0264 16.9424 90.8213 16.9424C90.6208 16.9424 90.4521 16.9902 90.3154 17.0859C90.1833 17.1816 90.083 17.307 90.0146 17.4619C89.9508 17.6169 89.9189 17.7832 89.9189 17.9609ZM93.4736 24.0859V23.5596C93.4736 23.1859 93.5557 22.8441 93.7197 22.5342C93.8883 22.2243 94.1322 21.9759 94.4512 21.7891C94.7702 21.6022 95.1553 21.5088 95.6064 21.5088C96.0758 21.5088 96.4678 21.6022 96.7822 21.7891C97.0967 21.9759 97.3337 22.2243 97.4932 22.5342C97.6572 22.8441 97.7393 23.1859 97.7393 23.5596V24.0859C97.7393 24.4596 97.6572 24.8014 97.4932 25.1113C97.3337 25.4212 97.0967 25.6696 96.7822 25.8564C96.4723 26.0433 96.0872 26.1367 95.627 26.1367C95.1667 26.1367 94.7747 26.0433 94.4512 25.8564C94.1322 25.6696 93.8883 25.4212 93.7197 25.1113C93.5557 24.8014 93.4736 24.4596 93.4736 24.0859ZM94.7041 23.5596V24.0859C94.7041 24.2637 94.7406 24.43 94.8135 24.585C94.8864 24.7354 94.9912 24.8584 95.1279 24.9541C95.2692 25.0498 95.4333 25.0977 95.6201 25.0977C95.848 25.0977 96.028 25.0498 96.1602 24.9541C96.2923 24.8584 96.3857 24.7354 96.4404 24.585C96.4951 24.43 96.5225 24.2637 96.5225 24.0859V23.5596C96.5225 23.3818 96.4883 23.2178 96.4199 23.0674C96.3516 22.9124 96.249 22.7871 96.1123 22.6914C95.9801 22.5957 95.8115 22.5479 95.6064 22.5479C95.4059 22.5479 95.2373 22.5957 95.1006 22.6914C94.9684 22.7871 94.8682 22.9124 94.7998 23.0674C94.736 23.2178 94.7041 23.3818 94.7041 23.5596ZM96.0576 17.4688L91.1973 25.248L90.3018 24.749L95.1621 16.9697L96.0576 17.4688Z" fill="#6B6B6B"/>
</svg>
