<svg width="28" height="35" viewBox="0 0 28 35" fill="none" xmlns="http://www.w3.org/2000/svg">
<path fill-rule="evenodd" clip-rule="evenodd" d="M4.71258 1.34222C4.15765 1.5485 3.48401 1.87358 3.21525 2.06463C2.45771 2.60378 1.2283 3.98166 0.858406 4.70605C-0.335848 7.04559 -0.279311 11.1486 0.998838 14.8816C1.60533 16.6525 1.95102 17.3803 2.77488 18.6202C3.36148 19.5031 3.67617 20.8055 4.89131 27.3777C5.44972 30.3981 5.96818 32.7807 6.13497 33.092C6.22915 33.268 6.55478 33.6014 6.85852 33.8328C7.30651 34.1743 7.5965 34.2539 8.39449 34.2539C9.32413 34.2539 9.79715 34.0769 10.3791 33.5116C10.8868 33.0183 11.0242 32.2629 12.4581 22.0756C12.8437 19.3351 13.0725 18.8447 13.965 18.8447C14.4581 18.8447 15.2536 19.478 15.2564 19.8728C15.2573 19.9908 15.4823 21.6159 15.7563 23.484C16.0306 25.3522 16.4446 28.1836 16.6765 29.7763C17.1301 32.8924 17.3778 33.5601 18.2471 34.0093C18.933 34.3639 20.3627 34.3226 21.0075 33.9298C22.0247 33.3099 22.0028 33.3895 23.8747 23.484L24.5792 19.756L25.4743 18.256C27.0806 15.5642 27.8171 13.0185 27.9646 9.64891C28.0401 7.92706 28.0024 7.27888 27.7776 6.41796C26.8801 2.98188 24.26 0.950195 20.7263 0.950195C19.2112 0.950195 18.4152 1.15515 16.4984 2.03861C15.6467 2.4313 15.2889 2.49741 14.0114 2.49923C12.6711 2.50089 12.401 2.44588 11.3587 1.95941C9.58592 1.13212 8.84298 0.953178 7.21367 0.960634C6.08424 0.96577 5.47609 1.05856 4.71258 1.34222ZM10.1152 2.88065C11.8798 3.71125 12.4252 3.84297 14.0943 3.84264C15.7251 3.84215 15.9553 3.78382 17.9077 2.87601C18.7969 2.46261 19.2466 2.36403 20.4776 2.31283C21.2983 2.2787 22.1429 2.31598 22.3543 2.39551C22.7683 2.55109 22.7967 2.51083 19.2248 6.82904C17.8701 8.46671 18.0967 8.90331 20.3012 8.90331H21.7994L19.5664 11.1395L17.3336 13.3754L17.7874 13.8291L18.2413 14.2828L21.1471 11.3858C23.5418 8.99858 24.0446 8.41618 24.0062 8.07486C23.9599 7.66494 23.9407 7.66014 22.1791 7.61358L20.3989 7.56669L22.104 5.47088C23.0417 4.31817 23.8976 3.34574 24.0057 3.30962C24.386 3.18303 25.8147 4.89809 26.2219 5.9701C26.7762 7.4295 26.7722 10.7754 26.2136 12.9627C25.7946 14.6035 24.9199 16.6099 23.9899 18.0626C23.4572 18.8947 23.3193 19.3544 22.7988 22.0309C20.6799 32.927 20.7774 32.502 20.3284 32.8016C20.2281 32.8685 19.8713 32.9244 19.5355 32.9258C18.6601 32.9295 18.3489 32.3948 18.0904 30.443C17.9757 29.5773 17.7325 27.8251 17.5498 26.5493C17.3672 25.2735 17.1552 23.7823 17.0786 23.2355C16.4716 18.8982 16.4019 18.6462 15.6524 18.0747C14.8317 17.4493 13.5102 17.3409 12.7122 17.8338C12.0794 18.2247 11.7148 18.7042 11.554 19.3573C11.4475 19.7898 11.0639 22.355 10.441 26.7978C9.70762 32.0296 9.6471 32.3312 9.27207 32.6384C8.79606 33.0279 7.88482 33.0125 7.51028 32.6084C7.30187 32.3835 6.97226 31.0398 6.40274 28.0933C4.53932 18.453 4.68937 19.0879 4.03479 18.0655C2.35624 15.4433 1.53404 12.8318 1.37885 9.63052C1.29379 7.87636 1.32629 7.47672 1.63667 6.45524C2.19906 4.60465 3.32534 3.38186 5.21761 2.56733C5.73192 2.3458 6.25269 2.28996 7.46236 2.32625C8.81628 2.36684 9.18867 2.44472 10.1152 2.88065ZM4.88949 4.70788C4.52639 4.95194 4.06049 5.34346 3.85424 5.57775C3.37143 6.12635 2.81998 7.59336 2.81998 8.32969C2.81998 8.88525 2.84021 8.90331 3.46179 8.90331H4.1036L4.21104 8.09474C4.37999 6.82175 4.91021 6.19925 6.43673 5.48214C6.46541 5.46872 6.43855 5.18904 6.37687 4.86081C6.23694 4.11553 5.83256 4.07395 4.88949 4.70788ZM7.29657 4.93669V5.60956L7.91831 5.55803C8.50624 5.50948 8.54288 5.47287 8.59146 4.88533L8.64302 4.26399H7.96971H7.29657V4.93669Z" fill="#E5E5E1"/>
<path fill-rule="evenodd" clip-rule="evenodd" d="M4.71258 1.34222C4.15765 1.5485 3.48401 1.87358 3.21525 2.06463C2.45771 2.60378 1.2283 3.98166 0.858406 4.70605C-0.335848 7.04559 -0.279311 11.1486 0.998838 14.8816C1.60533 16.6525 1.95102 17.3803 2.77488 18.6202C3.36148 19.5031 3.67617 20.8055 4.89131 27.3777C5.44972 30.3981 5.96818 32.7807 6.13497 33.092C6.22915 33.268 6.55478 33.6014 6.85852 33.8328C7.30651 34.1743 7.5965 34.2539 8.39449 34.2539C9.32413 34.2539 9.79715 34.0769 10.3791 33.5116C10.8868 33.0183 11.0242 32.2629 12.4581 22.0756C12.8437 19.3351 13.0725 18.8447 13.965 18.8447C14.4581 18.8447 15.2536 19.478 15.2564 19.8728C15.2573 19.9908 15.4823 21.6159 15.7563 23.484C16.0306 25.3522 16.4446 28.1836 16.6765 29.7763C17.1301 32.8924 17.3778 33.5601 18.2471 34.0093C18.933 34.3639 20.3627 34.3226 21.0075 33.9298C22.0247 33.3099 22.0028 33.3895 23.8747 23.484L24.5792 19.756L25.4743 18.256C27.0806 15.5642 27.8171 13.0185 27.9646 9.64891C28.0401 7.92706 28.0024 7.27888 27.7776 6.41796C26.8801 2.98188 24.26 0.950195 20.7263 0.950195C19.2112 0.950195 18.4152 1.15515 16.4984 2.03861C15.6467 2.4313 15.2889 2.49741 14.0114 2.49923C12.6711 2.50089 12.401 2.44588 11.3587 1.95941C9.58592 1.13212 8.84298 0.953178 7.21367 0.960634C6.08424 0.96577 5.47609 1.05856 4.71258 1.34222ZM10.1152 2.88065C11.8798 3.71125 12.4252 3.84297 14.0943 3.84264C15.7251 3.84215 15.9553 3.78382 17.9077 2.87601C18.7969 2.46261 19.2466 2.36403 20.4776 2.31283C21.2983 2.2787 22.1429 2.31598 22.3543 2.39551C22.7683 2.55109 22.7967 2.51083 19.2248 6.82904C17.8701 8.46671 18.0967 8.90331 20.3012 8.90331H21.7994L19.5664 11.1395L17.3336 13.3754L17.7874 13.8291L18.2413 14.2828L21.1471 11.3858C23.5418 8.99858 24.0446 8.41618 24.0062 8.07486C23.9599 7.66494 23.9407 7.66014 22.1791 7.61358L20.3989 7.56669L22.104 5.47088C23.0417 4.31817 23.8976 3.34574 24.0057 3.30962C24.386 3.18303 25.8147 4.89809 26.2219 5.9701C26.7762 7.4295 26.7722 10.7754 26.2136 12.9627C25.7946 14.6035 24.9199 16.6099 23.9899 18.0626C23.4572 18.8947 23.3193 19.3544 22.7988 22.0309C20.6799 32.927 20.7774 32.502 20.3284 32.8016C20.2281 32.8685 19.8713 32.9244 19.5355 32.9258C18.6601 32.9295 18.3489 32.3948 18.0904 30.443C17.9757 29.5773 17.7325 27.8251 17.5498 26.5493C17.3672 25.2735 17.1552 23.7823 17.0786 23.2355C16.4716 18.8982 16.4019 18.6462 15.6524 18.0747C14.8317 17.4493 13.5102 17.3409 12.7122 17.8338C12.0794 18.2247 11.7148 18.7042 11.554 19.3573C11.4475 19.7898 11.0639 22.355 10.441 26.7978C9.70762 32.0296 9.6471 32.3312 9.27207 32.6384C8.79606 33.0279 7.88482 33.0125 7.51028 32.6084C7.30187 32.3835 6.97226 31.0398 6.40274 28.0933C4.53932 18.453 4.68937 19.0879 4.03479 18.0655C2.35624 15.4433 1.53404 12.8318 1.37885 9.63052C1.29379 7.87636 1.32629 7.47672 1.63667 6.45524C2.19906 4.60465 3.32534 3.38186 5.21761 2.56733C5.73192 2.3458 6.25269 2.28996 7.46236 2.32625C8.81628 2.36684 9.18867 2.44472 10.1152 2.88065ZM4.88949 4.70788C4.52639 4.95194 4.06049 5.34346 3.85424 5.57775C3.37143 6.12635 2.81998 7.59336 2.81998 8.32969C2.81998 8.88525 2.84021 8.90331 3.46179 8.90331H4.1036L4.21104 8.09474C4.37999 6.82175 4.91021 6.19925 6.43673 5.48214C6.46541 5.46872 6.43855 5.18904 6.37687 4.86081C6.23694 4.11553 5.83256 4.07395 4.88949 4.70788ZM7.29657 4.93669V5.60956L7.91831 5.55803C8.50624 5.50948 8.54288 5.47287 8.59146 4.88533L8.64302 4.26399H7.96971H7.29657V4.93669Z" fill="#E5E5E1"/>
<path fill-rule="evenodd" clip-rule="evenodd" d="M4.71258 1.34222C4.15765 1.5485 3.48401 1.87358 3.21525 2.06463C2.45771 2.60378 1.2283 3.98166 0.858406 4.70605C-0.335848 7.04559 -0.279311 11.1486 0.998838 14.8816C1.60533 16.6525 1.95102 17.3803 2.77488 18.6202C3.36148 19.5031 3.67617 20.8055 4.89131 27.3777C5.44972 30.3981 5.96818 32.7807 6.13497 33.092C6.22915 33.268 6.55478 33.6014 6.85852 33.8328C7.30651 34.1743 7.5965 34.2539 8.39449 34.2539C9.32413 34.2539 9.79715 34.0769 10.3791 33.5116C10.8868 33.0183 11.0242 32.2629 12.4581 22.0756C12.8437 19.3351 13.0725 18.8447 13.965 18.8447C14.4581 18.8447 15.2536 19.478 15.2564 19.8728C15.2573 19.9908 15.4823 21.6159 15.7563 23.484C16.0306 25.3522 16.4446 28.1836 16.6765 29.7763C17.1301 32.8924 17.3778 33.5601 18.2471 34.0093C18.933 34.3639 20.3627 34.3226 21.0075 33.9298C22.0247 33.3099 22.0028 33.3895 23.8747 23.484L24.5792 19.756L25.4743 18.256C27.0806 15.5642 27.8171 13.0185 27.9646 9.64891C28.0401 7.92706 28.0024 7.27888 27.7776 6.41796C26.8801 2.98188 24.26 0.950195 20.7263 0.950195C19.2112 0.950195 18.4152 1.15515 16.4984 2.03861C15.6467 2.4313 15.2889 2.49741 14.0114 2.49923C12.6711 2.50089 12.401 2.44588 11.3587 1.95941C9.58592 1.13212 8.84298 0.953178 7.21367 0.960634C6.08424 0.96577 5.47609 1.05856 4.71258 1.34222ZM10.1152 2.88065C11.8798 3.71125 12.4252 3.84297 14.0943 3.84264C15.7251 3.84215 15.9553 3.78382 17.9077 2.87601C18.7969 2.46261 19.2466 2.36403 20.4776 2.31283C21.2983 2.2787 22.1429 2.31598 22.3543 2.39551C22.7683 2.55109 22.7967 2.51083 19.2248 6.82904C17.8701 8.46671 18.0967 8.90331 20.3012 8.90331H21.7994L19.5664 11.1395L17.3336 13.3754L17.7874 13.8291L18.2413 14.2828L21.1471 11.3858C23.5418 8.99858 24.0446 8.41618 24.0062 8.07486C23.9599 7.66494 23.9407 7.66014 22.1791 7.61358L20.3989 7.56669L22.104 5.47088C23.0417 4.31817 23.8976 3.34574 24.0057 3.30962C24.386 3.18303 25.8147 4.89809 26.2219 5.9701C26.7762 7.4295 26.7722 10.7754 26.2136 12.9627C25.7946 14.6035 24.9199 16.6099 23.9899 18.0626C23.4572 18.8947 23.3193 19.3544 22.7988 22.0309C20.6799 32.927 20.7774 32.502 20.3284 32.8016C20.2281 32.8685 19.8713 32.9244 19.5355 32.9258C18.6601 32.9295 18.3489 32.3948 18.0904 30.443C17.9757 29.5773 17.7325 27.8251 17.5498 26.5493C17.3672 25.2735 17.1552 23.7823 17.0786 23.2355C16.4716 18.8982 16.4019 18.6462 15.6524 18.0747C14.8317 17.4493 13.5102 17.3409 12.7122 17.8338C12.0794 18.2247 11.7148 18.7042 11.554 19.3573C11.4475 19.7898 11.0639 22.355 10.441 26.7978C9.70762 32.0296 9.6471 32.3312 9.27207 32.6384C8.79606 33.0279 7.88482 33.0125 7.51028 32.6084C7.30187 32.3835 6.97226 31.0398 6.40274 28.0933C4.53932 18.453 4.68937 19.0879 4.03479 18.0655C2.35624 15.4433 1.53404 12.8318 1.37885 9.63052C1.29379 7.87636 1.32629 7.47672 1.63667 6.45524C2.19906 4.60465 3.32534 3.38186 5.21761 2.56733C5.73192 2.3458 6.25269 2.28996 7.46236 2.32625C8.81628 2.36684 9.18867 2.44472 10.1152 2.88065ZM4.88949 4.70788C4.52639 4.95194 4.06049 5.34346 3.85424 5.57775C3.37143 6.12635 2.81998 7.59336 2.81998 8.32969C2.81998 8.88525 2.84021 8.90331 3.46179 8.90331H4.1036L4.21104 8.09474C4.37999 6.82175 4.91021 6.19925 6.43673 5.48214C6.46541 5.46872 6.43855 5.18904 6.37687 4.86081C6.23694 4.11553 5.83256 4.07395 4.88949 4.70788ZM7.29657 4.93669V5.60956L7.91831 5.55803C8.50624 5.50948 8.54288 5.47287 8.59146 4.88533L8.64302 4.26399H7.96971H7.29657V4.93669Z" fill="#E5E5E1"/>
<path fill-rule="evenodd" clip-rule="evenodd" d="M4.71258 1.34222C4.15765 1.5485 3.48401 1.87358 3.21525 2.06463C2.45771 2.60378 1.2283 3.98166 0.858406 4.70605C-0.335848 7.04559 -0.279311 11.1486 0.998838 14.8816C1.60533 16.6525 1.95102 17.3803 2.77488 18.6202C3.36148 19.5031 3.67617 20.8055 4.89131 27.3777C5.44972 30.3981 5.96818 32.7807 6.13497 33.092C6.22915 33.268 6.55478 33.6014 6.85852 33.8328C7.30651 34.1743 7.5965 34.2539 8.39449 34.2539C9.32413 34.2539 9.79715 34.0769 10.3791 33.5116C10.8868 33.0183 11.0242 32.2629 12.4581 22.0756C12.8437 19.3351 13.0725 18.8447 13.965 18.8447C14.4581 18.8447 15.2536 19.478 15.2564 19.8728C15.2573 19.9908 15.4823 21.6159 15.7563 23.484C16.0306 25.3522 16.4446 28.1836 16.6765 29.7763C17.1301 32.8924 17.3778 33.5601 18.2471 34.0093C18.933 34.3639 20.3627 34.3226 21.0075 33.9298C22.0247 33.3099 22.0028 33.3895 23.8747 23.484L24.5792 19.756L25.4743 18.256C27.0806 15.5642 27.8171 13.0185 27.9646 9.64891C28.0401 7.92706 28.0024 7.27888 27.7776 6.41796C26.8801 2.98188 24.26 0.950195 20.7263 0.950195C19.2112 0.950195 18.4152 1.15515 16.4984 2.03861C15.6467 2.4313 15.2889 2.49741 14.0114 2.49923C12.6711 2.50089 12.401 2.44588 11.3587 1.95941C9.58592 1.13212 8.84298 0.953178 7.21367 0.960634C6.08424 0.96577 5.47609 1.05856 4.71258 1.34222ZM10.1152 2.88065C11.8798 3.71125 12.4252 3.84297 14.0943 3.84264C15.7251 3.84215 15.9553 3.78382 17.9077 2.87601C18.7969 2.46261 19.2466 2.36403 20.4776 2.31283C21.2983 2.2787 22.1429 2.31598 22.3543 2.39551C22.7683 2.55109 22.7967 2.51083 19.2248 6.82904C17.8701 8.46671 18.0967 8.90331 20.3012 8.90331H21.7994L19.5664 11.1395L17.3336 13.3754L17.7874 13.8291L18.2413 14.2828L21.1471 11.3858C23.5418 8.99858 24.0446 8.41618 24.0062 8.07486C23.9599 7.66494 23.9407 7.66014 22.1791 7.61358L20.3989 7.56669L22.104 5.47088C23.0417 4.31817 23.8976 3.34574 24.0057 3.30962C24.386 3.18303 25.8147 4.89809 26.2219 5.9701C26.7762 7.4295 26.7722 10.7754 26.2136 12.9627C25.7946 14.6035 24.9199 16.6099 23.9899 18.0626C23.4572 18.8947 23.3193 19.3544 22.7988 22.0309C20.6799 32.927 20.7774 32.502 20.3284 32.8016C20.2281 32.8685 19.8713 32.9244 19.5355 32.9258C18.6601 32.9295 18.3489 32.3948 18.0904 30.443C17.9757 29.5773 17.7325 27.8251 17.5498 26.5493C17.3672 25.2735 17.1552 23.7823 17.0786 23.2355C16.4716 18.8982 16.4019 18.6462 15.6524 18.0747C14.8317 17.4493 13.5102 17.3409 12.7122 17.8338C12.0794 18.2247 11.7148 18.7042 11.554 19.3573C11.4475 19.7898 11.0639 22.355 10.441 26.7978C9.70762 32.0296 9.6471 32.3312 9.27207 32.6384C8.79606 33.0279 7.88482 33.0125 7.51028 32.6084C7.30187 32.3835 6.97226 31.0398 6.40274 28.0933C4.53932 18.453 4.68937 19.0879 4.03479 18.0655C2.35624 15.4433 1.53404 12.8318 1.37885 9.63052C1.29379 7.87636 1.32629 7.47672 1.63667 6.45524C2.19906 4.60465 3.32534 3.38186 5.21761 2.56733C5.73192 2.3458 6.25269 2.28996 7.46236 2.32625C8.81628 2.36684 9.18867 2.44472 10.1152 2.88065ZM4.88949 4.70788C4.52639 4.95194 4.06049 5.34346 3.85424 5.57775C3.37143 6.12635 2.81998 7.59336 2.81998 8.32969C2.81998 8.88525 2.84021 8.90331 3.46179 8.90331H4.1036L4.21104 8.09474C4.37999 6.82175 4.91021 6.19925 6.43673 5.48214C6.46541 5.46872 6.43855 5.18904 6.37687 4.86081C6.23694 4.11553 5.83256 4.07395 4.88949 4.70788ZM7.29657 4.93669V5.60956L7.91831 5.55803C8.50624 5.50948 8.54288 5.47287 8.59146 4.88533L8.64302 4.26399H7.96971H7.29657V4.93669Z" fill="#E5E5E1"/>
<path fill-rule="evenodd" clip-rule="evenodd" d="M4.71258 1.34222C4.15765 1.5485 3.48401 1.87358 3.21525 2.06463C2.45771 2.60378 1.2283 3.98166 0.858406 4.70605C-0.335848 7.04559 -0.279311 11.1486 0.998838 14.8816C1.60533 16.6525 1.95102 17.3803 2.77488 18.6202C3.36148 19.5031 3.67617 20.8055 4.89131 27.3777C5.44972 30.3981 5.96818 32.7807 6.13497 33.092C6.22915 33.268 6.55478 33.6014 6.85852 33.8328C7.30651 34.1743 7.5965 34.2539 8.39449 34.2539C9.32413 34.2539 9.79715 34.0769 10.3791 33.5116C10.8868 33.0183 11.0242 32.2629 12.4581 22.0756C12.8437 19.3351 13.0725 18.8447 13.965 18.8447C14.4581 18.8447 15.2536 19.478 15.2564 19.8728C15.2573 19.9908 15.4823 21.6159 15.7563 23.484C16.0306 25.3522 16.4446 28.1836 16.6765 29.7763C17.1301 32.8924 17.3778 33.5601 18.2471 34.0093C18.933 34.3639 20.3627 34.3226 21.0075 33.9298C22.0247 33.3099 22.0028 33.3895 23.8747 23.484L24.5792 19.756L25.4743 18.256C27.0806 15.5642 27.8171 13.0185 27.9646 9.64891C28.0401 7.92706 28.0024 7.27888 27.7776 6.41796C26.8801 2.98188 24.26 0.950195 20.7263 0.950195C19.2112 0.950195 18.4152 1.15515 16.4984 2.03861C15.6467 2.4313 15.2889 2.49741 14.0114 2.49923C12.6711 2.50089 12.401 2.44588 11.3587 1.95941C9.58592 1.13212 8.84298 0.953178 7.21367 0.960634C6.08424 0.96577 5.47609 1.05856 4.71258 1.34222ZM10.1152 2.88065C11.8798 3.71125 12.4252 3.84297 14.0943 3.84264C15.7251 3.84215 15.9553 3.78382 17.9077 2.87601C18.7969 2.46261 19.2466 2.36403 20.4776 2.31283C21.2983 2.2787 22.1429 2.31598 22.3543 2.39551C22.7683 2.55109 22.7967 2.51083 19.2248 6.82904C17.8701 8.46671 18.0967 8.90331 20.3012 8.90331H21.7994L19.5664 11.1395L17.3336 13.3754L17.7874 13.8291L18.2413 14.2828L21.1471 11.3858C23.5418 8.99858 24.0446 8.41618 24.0062 8.07486C23.9599 7.66494 23.9407 7.66014 22.1791 7.61358L20.3989 7.56669L22.104 5.47088C23.0417 4.31817 23.8976 3.34574 24.0057 3.30962C24.386 3.18303 25.8147 4.89809 26.2219 5.9701C26.7762 7.4295 26.7722 10.7754 26.2136 12.9627C25.7946 14.6035 24.9199 16.6099 23.9899 18.0626C23.4572 18.8947 23.3193 19.3544 22.7988 22.0309C20.6799 32.927 20.7774 32.502 20.3284 32.8016C20.2281 32.8685 19.8713 32.9244 19.5355 32.9258C18.6601 32.9295 18.3489 32.3948 18.0904 30.443C17.9757 29.5773 17.7325 27.8251 17.5498 26.5493C17.3672 25.2735 17.1552 23.7823 17.0786 23.2355C16.4716 18.8982 16.4019 18.6462 15.6524 18.0747C14.8317 17.4493 13.5102 17.3409 12.7122 17.8338C12.0794 18.2247 11.7148 18.7042 11.554 19.3573C11.4475 19.7898 11.0639 22.355 10.441 26.7978C9.70762 32.0296 9.6471 32.3312 9.27207 32.6384C8.79606 33.0279 7.88482 33.0125 7.51028 32.6084C7.30187 32.3835 6.97226 31.0398 6.40274 28.0933C4.53932 18.453 4.68937 19.0879 4.03479 18.0655C2.35624 15.4433 1.53404 12.8318 1.37885 9.63052C1.29379 7.87636 1.32629 7.47672 1.63667 6.45524C2.19906 4.60465 3.32534 3.38186 5.21761 2.56733C5.73192 2.3458 6.25269 2.28996 7.46236 2.32625C8.81628 2.36684 9.18867 2.44472 10.1152 2.88065ZM4.88949 4.70788C4.52639 4.95194 4.06049 5.34346 3.85424 5.57775C3.37143 6.12635 2.81998 7.59336 2.81998 8.32969C2.81998 8.88525 2.84021 8.90331 3.46179 8.90331H4.1036L4.21104 8.09474C4.37999 6.82175 4.91021 6.19925 6.43673 5.48214C6.46541 5.46872 6.43855 5.18904 6.37687 4.86081C6.23694 4.11553 5.83256 4.07395 4.88949 4.70788ZM7.29657 4.93669V5.60956L7.91831 5.55803C8.50624 5.50948 8.54288 5.47287 8.59146 4.88533L8.64302 4.26399H7.96971H7.29657V4.93669Z" fill="#E5E5E1"/>
<path fill-rule="evenodd" clip-rule="evenodd" d="M4.71258 1.34222C4.15765 1.5485 3.48401 1.87358 3.21525 2.06463C2.45771 2.60378 1.2283 3.98166 0.858406 4.70605C-0.335848 7.04559 -0.279311 11.1486 0.998838 14.8816C1.60533 16.6525 1.95102 17.3803 2.77488 18.6202C3.36148 19.5031 3.67617 20.8055 4.89131 27.3777C5.44972 30.3981 5.96818 32.7807 6.13497 33.092C6.22915 33.268 6.55478 33.6014 6.85852 33.8328C7.30651 34.1743 7.5965 34.2539 8.39449 34.2539C9.32413 34.2539 9.79715 34.0769 10.3791 33.5116C10.8868 33.0183 11.0242 32.2629 12.4581 22.0756C12.8437 19.3351 13.0725 18.8447 13.965 18.8447C14.4581 18.8447 15.2536 19.478 15.2564 19.8728C15.2573 19.9908 15.4823 21.6159 15.7563 23.484C16.0306 25.3522 16.4446 28.1836 16.6765 29.7763C17.1301 32.8924 17.3778 33.5601 18.2471 34.0093C18.933 34.3639 20.3627 34.3226 21.0075 33.9298C22.0247 33.3099 22.0028 33.3895 23.8747 23.484L24.5792 19.756L25.4743 18.256C27.0806 15.5642 27.8171 13.0185 27.9646 9.64891C28.0401 7.92706 28.0024 7.27888 27.7776 6.41796C26.8801 2.98188 24.26 0.950195 20.7263 0.950195C19.2112 0.950195 18.4152 1.15515 16.4984 2.03861C15.6467 2.4313 15.2889 2.49741 14.0114 2.49923C12.6711 2.50089 12.401 2.44588 11.3587 1.95941C9.58592 1.13212 8.84298 0.953178 7.21367 0.960634C6.08424 0.96577 5.47609 1.05856 4.71258 1.34222ZM10.1152 2.88065C11.8798 3.71125 12.4252 3.84297 14.0943 3.84264C15.7251 3.84215 15.9553 3.78382 17.9077 2.87601C18.7969 2.46261 19.2466 2.36403 20.4776 2.31283C21.2983 2.2787 22.1429 2.31598 22.3543 2.39551C22.7683 2.55109 22.7967 2.51083 19.2248 6.82904C17.8701 8.46671 18.0967 8.90331 20.3012 8.90331H21.7994L19.5664 11.1395L17.3336 13.3754L17.7874 13.8291L18.2413 14.2828L21.1471 11.3858C23.5418 8.99858 24.0446 8.41618 24.0062 8.07486C23.9599 7.66494 23.9407 7.66014 22.1791 7.61358L20.3989 7.56669L22.104 5.47088C23.0417 4.31817 23.8976 3.34574 24.0057 3.30962C24.386 3.18303 25.8147 4.89809 26.2219 5.9701C26.7762 7.4295 26.7722 10.7754 26.2136 12.9627C25.7946 14.6035 24.9199 16.6099 23.9899 18.0626C23.4572 18.8947 23.3193 19.3544 22.7988 22.0309C20.6799 32.927 20.7774 32.502 20.3284 32.8016C20.2281 32.8685 19.8713 32.9244 19.5355 32.9258C18.6601 32.9295 18.3489 32.3948 18.0904 30.443C17.9757 29.5773 17.7325 27.8251 17.5498 26.5493C17.3672 25.2735 17.1552 23.7823 17.0786 23.2355C16.4716 18.8982 16.4019 18.6462 15.6524 18.0747C14.8317 17.4493 13.5102 17.3409 12.7122 17.8338C12.0794 18.2247 11.7148 18.7042 11.554 19.3573C11.4475 19.7898 11.0639 22.355 10.441 26.7978C9.70762 32.0296 9.6471 32.3312 9.27207 32.6384C8.79606 33.0279 7.88482 33.0125 7.51028 32.6084C7.30187 32.3835 6.97226 31.0398 6.40274 28.0933C4.53932 18.453 4.68937 19.0879 4.03479 18.0655C2.35624 15.4433 1.53404 12.8318 1.37885 9.63052C1.29379 7.87636 1.32629 7.47672 1.63667 6.45524C2.19906 4.60465 3.32534 3.38186 5.21761 2.56733C5.73192 2.3458 6.25269 2.28996 7.46236 2.32625C8.81628 2.36684 9.18867 2.44472 10.1152 2.88065ZM4.88949 4.70788C4.52639 4.95194 4.06049 5.34346 3.85424 5.57775C3.37143 6.12635 2.81998 7.59336 2.81998 8.32969C2.81998 8.88525 2.84021 8.90331 3.46179 8.90331H4.1036L4.21104 8.09474C4.37999 6.82175 4.91021 6.19925 6.43673 5.48214C6.46541 5.46872 6.43855 5.18904 6.37687 4.86081C6.23694 4.11553 5.83256 4.07395 4.88949 4.70788ZM7.29657 4.93669V5.60956L7.91831 5.55803C8.50624 5.50948 8.54288 5.47287 8.59146 4.88533L8.64302 4.26399H7.96971H7.29657V4.93669Z" fill="#E5E5E1"/>
<path fill-rule="evenodd" clip-rule="evenodd" d="M4.71258 1.34222C4.15765 1.5485 3.48401 1.87358 3.21525 2.06463C2.45771 2.60378 1.2283 3.98166 0.858406 4.70605C-0.335848 7.04559 -0.279311 11.1486 0.998838 14.8816C1.60533 16.6525 1.95102 17.3803 2.77488 18.6202C3.36148 19.5031 3.67617 20.8055 4.89131 27.3777C5.44972 30.3981 5.96818 32.7807 6.13497 33.092C6.22915 33.268 6.55478 33.6014 6.85852 33.8328C7.30651 34.1743 7.5965 34.2539 8.39449 34.2539C9.32413 34.2539 9.79715 34.0769 10.3791 33.5116C10.8868 33.0183 11.0242 32.2629 12.4581 22.0756C12.8437 19.3351 13.0725 18.8447 13.965 18.8447C14.4581 18.8447 15.2536 19.478 15.2564 19.8728C15.2573 19.9908 15.4823 21.6159 15.7563 23.484C16.0306 25.3522 16.4446 28.1836 16.6765 29.7763C17.1301 32.8924 17.3778 33.5601 18.2471 34.0093C18.933 34.3639 20.3627 34.3226 21.0075 33.9298C22.0247 33.3099 22.0028 33.3895 23.8747 23.484L24.5792 19.756L25.4743 18.256C27.0806 15.5642 27.8171 13.0185 27.9646 9.64891C28.0401 7.92706 28.0024 7.27888 27.7776 6.41796C26.8801 2.98188 24.26 0.950195 20.7263 0.950195C19.2112 0.950195 18.4152 1.15515 16.4984 2.03861C15.6467 2.4313 15.2889 2.49741 14.0114 2.49923C12.6711 2.50089 12.401 2.44588 11.3587 1.95941C9.58592 1.13212 8.84298 0.953178 7.21367 0.960634C6.08424 0.96577 5.47609 1.05856 4.71258 1.34222ZM10.1152 2.88065C11.8798 3.71125 12.4252 3.84297 14.0943 3.84264C15.7251 3.84215 15.9553 3.78382 17.9077 2.87601C18.7969 2.46261 19.2466 2.36403 20.4776 2.31283C21.2983 2.2787 22.1429 2.31598 22.3543 2.39551C22.7683 2.55109 22.7967 2.51083 19.2248 6.82904C17.8701 8.46671 18.0967 8.90331 20.3012 8.90331H21.7994L19.5664 11.1395L17.3336 13.3754L17.7874 13.8291L18.2413 14.2828L21.1471 11.3858C23.5418 8.99858 24.0446 8.41618 24.0062 8.07486C23.9599 7.66494 23.9407 7.66014 22.1791 7.61358L20.3989 7.56669L22.104 5.47088C23.0417 4.31817 23.8976 3.34574 24.0057 3.30962C24.386 3.18303 25.8147 4.89809 26.2219 5.9701C26.7762 7.4295 26.7722 10.7754 26.2136 12.9627C25.7946 14.6035 24.9199 16.6099 23.9899 18.0626C23.4572 18.8947 23.3193 19.3544 22.7988 22.0309C20.6799 32.927 20.7774 32.502 20.3284 32.8016C20.2281 32.8685 19.8713 32.9244 19.5355 32.9258C18.6601 32.9295 18.3489 32.3948 18.0904 30.443C17.9757 29.5773 17.7325 27.8251 17.5498 26.5493C17.3672 25.2735 17.1552 23.7823 17.0786 23.2355C16.4716 18.8982 16.4019 18.6462 15.6524 18.0747C14.8317 17.4493 13.5102 17.3409 12.7122 17.8338C12.0794 18.2247 11.7148 18.7042 11.554 19.3573C11.4475 19.7898 11.0639 22.355 10.441 26.7978C9.70762 32.0296 9.6471 32.3312 9.27207 32.6384C8.79606 33.0279 7.88482 33.0125 7.51028 32.6084C7.30187 32.3835 6.97226 31.0398 6.40274 28.0933C4.53932 18.453 4.68937 19.0879 4.03479 18.0655C2.35624 15.4433 1.53404 12.8318 1.37885 9.63052C1.29379 7.87636 1.32629 7.47672 1.63667 6.45524C2.19906 4.60465 3.32534 3.38186 5.21761 2.56733C5.73192 2.3458 6.25269 2.28996 7.46236 2.32625C8.81628 2.36684 9.18867 2.44472 10.1152 2.88065ZM4.88949 4.70788C4.52639 4.95194 4.06049 5.34346 3.85424 5.57775C3.37143 6.12635 2.81998 7.59336 2.81998 8.32969C2.81998 8.88525 2.84021 8.90331 3.46179 8.90331H4.1036L4.21104 8.09474C4.37999 6.82175 4.91021 6.19925 6.43673 5.48214C6.46541 5.46872 6.43855 5.18904 6.37687 4.86081C6.23694 4.11553 5.83256 4.07395 4.88949 4.70788ZM7.29657 4.93669V5.60956L7.91831 5.55803C8.50624 5.50948 8.54288 5.47287 8.59146 4.88533L8.64302 4.26399H7.96971H7.29657V4.93669Z" fill="#E5E5E1"/>
<path fill-rule="evenodd" clip-rule="evenodd" d="M4.71258 1.34222C4.15765 1.5485 3.48401 1.87358 3.21525 2.06463C2.45771 2.60378 1.2283 3.98166 0.858406 4.70605C-0.335848 7.04559 -0.279311 11.1486 0.998838 14.8816C1.60533 16.6525 1.95102 17.3803 2.77488 18.6202C3.36148 19.5031 3.67617 20.8055 4.89131 27.3777C5.44972 30.3981 5.96818 32.7807 6.13497 33.092C6.22915 33.268 6.55478 33.6014 6.85852 33.8328C7.30651 34.1743 7.5965 34.2539 8.39449 34.2539C9.32413 34.2539 9.79715 34.0769 10.3791 33.5116C10.8868 33.0183 11.0242 32.2629 12.4581 22.0757C12.8437 19.3351 13.0725 18.8447 13.965 18.8447C14.4581 18.8447 15.2536 19.478 15.2564 19.8728C15.2573 19.9908 15.4823 21.6159 15.7563 23.484C16.0306 25.3522 16.4446 28.1836 16.6765 29.7763C17.1301 32.8924 17.3778 33.5601 18.2471 34.0093C18.933 34.3639 20.3627 34.3226 21.0075 33.9298C22.0247 33.3099 22.0028 33.3895 23.8747 23.484L24.5792 19.756L25.4743 18.256C27.0806 15.5642 27.8171 13.0185 27.9646 9.64891C28.0401 7.92706 28.0024 7.27888 27.7776 6.41796C26.8801 2.98188 24.26 0.950195 20.7263 0.950195C19.2112 0.950195 18.4152 1.15515 16.4984 2.03861C15.6467 2.4313 15.2889 2.49741 14.0114 2.49923C12.6711 2.50089 12.401 2.44588 11.3587 1.95941C9.58592 1.13212 8.84298 0.953178 7.21367 0.960634C6.08424 0.96577 5.47609 1.05856 4.71258 1.34222ZM10.1152 2.88065C11.8798 3.71125 12.4252 3.84297 14.0943 3.84264C15.7251 3.84215 15.9553 3.78382 17.9077 2.87601C18.7969 2.46261 19.2466 2.36403 20.4776 2.31283C21.2983 2.2787 22.1429 2.31598 22.3543 2.39551C22.7683 2.55109 22.7967 2.51083 19.2248 6.82904C17.8701 8.46672 18.0967 8.90331 20.3012 8.90331H21.7994L19.5664 11.1395L17.3336 13.3754L17.7874 13.8291L18.2413 14.2828L21.1471 11.3858C23.5418 8.99858 24.0446 8.41618 24.0062 8.07486C23.9599 7.66494 23.9407 7.66014 22.1791 7.61358L20.3989 7.56669L22.104 5.47088C23.0417 4.31817 23.8976 3.34574 24.0057 3.30962C24.386 3.18303 25.8147 4.89809 26.2219 5.9701C26.7762 7.4295 26.7722 10.7754 26.2136 12.9627C25.7946 14.6035 24.9199 16.6099 23.9899 18.0626C23.4572 18.8947 23.3193 19.3544 22.7988 22.0309C20.6799 32.927 20.7774 32.502 20.3284 32.8016C20.2281 32.8685 19.8713 32.9244 19.5355 32.9258C18.6601 32.9295 18.3489 32.3948 18.0904 30.443C17.9757 29.5773 17.7325 27.8251 17.5498 26.5493C17.3672 25.2735 17.1552 23.7823 17.0786 23.2355C16.4716 18.8982 16.4019 18.6462 15.6524 18.0747C14.8317 17.4493 13.5102 17.3409 12.7122 17.8338C12.0794 18.2247 11.7148 18.7042 11.554 19.3573C11.4475 19.7898 11.0639 22.355 10.441 26.7978C9.70762 32.0296 9.6471 32.3312 9.27207 32.6384C8.79606 33.0279 7.88482 33.0125 7.51028 32.6084C7.30187 32.3835 6.97226 31.0398 6.40274 28.0933C4.53932 18.453 4.68937 19.0879 4.03479 18.0655C2.35624 15.4433 1.53404 12.8318 1.37885 9.63052C1.2938 7.87636 1.32629 7.47672 1.63667 6.45524C2.19906 4.60465 3.32534 3.38186 5.21761 2.56733C5.73191 2.3458 6.25269 2.28996 7.46236 2.32625C8.81628 2.36684 9.18867 2.44472 10.1152 2.88065ZM4.88949 4.70788C4.52639 4.95194 4.06049 5.34346 3.85424 5.57775C3.37143 6.12635 2.81998 7.59336 2.81998 8.32969C2.81998 8.88525 2.84021 8.90331 3.46179 8.90331H4.1036L4.21104 8.09474C4.37999 6.82175 4.91021 6.19925 6.43673 5.48214C6.46541 5.46872 6.43855 5.18904 6.37687 4.86081C6.23694 4.11553 5.83256 4.07395 4.88949 4.70788ZM7.29657 4.93669V5.60956L7.91831 5.55803C8.50624 5.50948 8.54288 5.47287 8.59146 4.88533L8.64302 4.26399H7.96971H7.29657V4.93669Z" fill="#FFFFD1"/>
</svg>
