<svg width="36" height="37" viewBox="0 0 36 37" fill="none" xmlns="http://www.w3.org/2000/svg">
<path d="M2.64681 0.132433C2.53419 0.223937 2.42157 0.421022 2.35118 0.681457C2.1189 1.50499 1.50653 2.11737 0.682993 2.34964C0.0917364 2.51857 -0.133504 2.85644 0.0776589 3.25061C0.190279 3.46177 0.338093 3.56031 0.626683 3.61662C1.24609 3.73628 1.88662 4.25715 2.18929 4.8836C2.29487 5.11588 2.38637 5.36224 2.38637 5.42559C2.38637 5.48893 2.47084 5.63675 2.56938 5.75641C2.70312 5.9183 2.8087 5.97461 2.97763 5.97461C3.32253 5.97461 3.4985 5.80568 3.6252 5.3552C3.86452 4.48943 4.49097 3.86298 5.35673 3.61662C5.80722 3.48992 5.97615 3.31396 5.97615 2.98313C5.97615 2.69454 5.76498 2.48338 5.39897 2.3778C4.47689 2.13144 3.88563 1.55426 3.61112 0.618108C3.44219 0.0550065 3.01986 -0.163196 2.64681 0.132433ZM3.41403 2.58192L3.82932 2.99017L3.407 3.4125L2.99171 3.82779L2.5905 3.40546L2.18929 2.98313L2.58346 2.58192C2.80166 2.35668 2.98467 2.17368 2.99171 2.17368C2.99171 2.17368 3.18176 2.35668 3.41403 2.58192Z" fill="#FFFFD1"/>
<path d="M11.4663 3.62937C10.3612 3.74199 9.27022 4.04466 8.40445 4.47403C6.29282 5.52984 4.68095 7.40919 4.01226 9.59825C3.63217 10.8582 3.5477 11.7451 3.65329 13.2936C3.85741 16.3977 4.65279 19.0161 6.1802 21.6697L6.64476 22.4792L7.96805 28.2862C8.91124 32.439 9.34061 34.2058 9.47435 34.4803C9.57993 34.6915 9.81221 35.0152 9.99521 35.1982C11.0933 36.2963 12.8389 36.2822 13.944 35.1701C14.5704 34.5296 14.5493 34.6351 15.591 28.3777C16.2597 24.3937 16.5765 22.634 16.675 22.444C16.9917 21.8316 17.6956 21.5078 18.3784 21.6697C18.6529 21.7401 18.8218 21.8387 19.0682 22.085C19.2512 22.268 19.4201 22.5073 19.4483 22.62C19.4835 22.7396 19.9199 25.3369 20.4337 28.3988C21.2713 33.4174 21.3839 34.0087 21.581 34.424C21.9752 35.2546 22.7213 35.8177 23.6715 35.9795C24.8189 36.1766 26.0858 35.5009 26.5715 34.4451C26.6841 34.2058 27.2261 31.9463 28.0567 28.3073L29.3589 22.5496L29.8727 21.6345C31.5761 18.5868 32.3785 15.6657 32.3926 12.4138C32.3996 11.0834 32.3081 10.4429 31.9562 9.4082C31.0411 6.69827 28.7535 4.57961 25.9662 3.86165C25.6776 3.79126 25.0934 3.69272 24.664 3.65049C23.3407 3.51675 22.3694 3.65049 20.6871 4.21359C19.3427 4.66407 18.8148 4.77669 18.0124 4.77669C17.2451 4.77669 16.668 4.66407 15.76 4.34733C13.9369 3.69976 12.7263 3.49564 11.4663 3.62937ZM12.9304 4.85412C13.6906 4.93858 14.134 5.0512 15.3588 5.48057C16.3935 5.84658 17.0621 5.96624 18.0124 5.96624C18.9626 5.96624 19.6313 5.84658 20.666 5.48057C22.4679 4.84708 23.3548 4.7063 24.5725 4.84708C26.3463 5.0512 27.8385 5.74804 29.021 6.93759C30.6892 8.60578 31.3508 10.5485 31.1749 13.2373C30.9778 16.1725 30.2106 18.6712 28.7043 21.2474L28.2327 22.0569L26.9235 27.8638C26.1985 31.0595 25.5439 33.8116 25.4594 33.9735C25.1919 34.5366 24.4951 34.8885 23.8616 34.797C23.3055 34.7126 22.855 34.3747 22.6368 33.8679C22.5735 33.7201 22.123 31.2073 21.6373 28.2862C21.1517 25.3651 20.7223 22.81 20.6801 22.62C20.4196 21.4938 19.5609 20.6632 18.4488 20.4661C17.1677 20.2409 15.8726 21.0151 15.4503 22.261C15.3869 22.444 14.9224 25.0695 14.4226 28.0961C13.9088 31.1932 13.4513 33.7201 13.3879 33.875C13.1134 34.4873 12.4095 34.8956 11.7619 34.8041C11.1425 34.7196 10.6076 34.2551 10.4246 33.6356C10.3823 33.5019 9.77701 30.8412 9.07314 27.7231L7.79208 22.0569L7.32048 21.2474C5.82826 18.6853 5.04696 16.1584 4.84988 13.2373C4.66687 10.4781 5.36371 8.52132 7.1234 6.84609C8.33407 5.69173 9.7207 5.04416 11.3678 4.85412C12.0787 4.76965 12.1772 4.76965 12.9304 4.85412Z" fill="#FFFFD1"/>
<path d="M11.3958 7.76863V8.36719H11.994H12.5923V7.76863V7.17007H11.994H11.3958V7.76863Z" fill="#FFFFD1"/>
<path d="M9.46736 7.41695C8.27077 7.90966 7.25719 8.99363 6.89117 10.1832C6.72928 10.69 6.60962 11.3798 6.60962 11.7599V12.0273H7.20791H7.80621V11.7599C7.80621 11.3164 8.0033 10.5351 8.22854 10.0846C8.57344 9.38077 9.39697 8.69097 10.2064 8.41646C10.312 8.38126 10.312 8.33199 10.2135 7.81112C10.0868 7.15652 10.0868 7.15652 9.46736 7.41695Z" fill="#FFFFD1"/>
<path d="M32.5896 25.4354C32.5122 25.534 32.4277 25.717 32.3996 25.8437C32.2236 26.6743 31.5268 27.3711 30.654 27.5893C29.8445 27.7934 29.8445 28.6381 30.654 28.8422C31.5268 29.0604 32.1391 29.6728 32.4137 30.6089C32.5333 31.0172 32.7093 31.1861 33.0401 31.1931C33.3639 31.2002 33.5187 31.0383 33.6666 30.5315C33.8988 29.715 34.4971 29.1167 35.2996 28.8774C35.8345 28.7225 35.9964 28.5747 35.9964 28.2298C35.9964 27.8568 35.8908 27.7582 35.3418 27.5823C34.469 27.3077 33.8988 26.7306 33.6666 25.8929C33.5328 25.4214 33.3639 25.2595 33.0049 25.2595C32.8008 25.2595 32.7023 25.3017 32.5896 25.4354ZM33.4343 28.631L33.026 29.0393L32.6178 28.631L32.2166 28.2228L32.6248 27.8075L33.0331 27.3922L33.4343 27.8075L33.8425 28.2228L33.4343 28.631Z" fill="#FFFFD1"/>
</svg>
