<svg width="45" height="45" viewBox="0 0 45 45" fill="none" xmlns="http://www.w3.org/2000/svg">
<path d="M25.7733 0.221512C25.6171 0.355427 25.5272 0.550922 25.5272 0.756699V4.90717C25.5272 8.95987 25.5447 9.44338 25.6942 10.1643C26.3184 13.1269 28.2085 15.6147 30.837 16.9246C31.7952 17.4081 32.5688 17.6543 33.6414 17.8477C34.1344 17.9341 34.4941 18.3623 34.4941 18.8629V24.5905C34.4941 30.753 34.4853 31.2014 34.3359 31.5882C34.1424 32.0893 33.4392 32.7574 32.9732 32.8893C32.771 32.942 30.6612 32.9772 27.2854 32.9772C21.2107 32.9772 21.5448 33.0123 20.8591 32.2563C20.2613 31.6058 20.2525 31.5706 20.2525 27.9311V25.1681C20.2525 24.8812 20.437 24.6269 20.7096 24.5377C21.5184 24.274 22.2832 23.6498 22.7228 22.9026C23.3645 21.8125 23.3645 20.2301 22.714 19.1224C21.9668 17.8477 20.3844 17.0916 18.9338 17.329C16.4284 17.7334 15.0394 20.4586 16.1734 22.7092C16.6306 23.6059 17.4657 24.2916 18.5646 24.6608C18.7053 24.7047 18.7141 24.9245 18.7141 27.6761C18.7141 29.3113 18.758 30.9201 18.802 31.2629C19.013 32.7222 19.9712 33.8475 21.4393 34.3486C21.8964 34.5068 22.2657 34.5156 27.3733 34.5156C32.4809 34.5156 32.8502 34.5068 33.3073 34.3486C34.5556 33.9266 35.4084 33.0739 35.8391 31.8519C35.9622 31.4827 35.9798 30.6739 36.0062 24.7047L36.0378 18.6633C36.0398 18.2705 36.3293 17.9384 36.7182 17.8828C38.0633 17.6807 39.6105 17.0653 40.8149 16.2477C42.4676 15.1312 43.9445 13.1005 44.5599 11.1137C44.9555 9.83898 44.9995 9.17965 44.9995 4.73135V0.880951C44.9995 0.650101 44.9078 0.428703 44.7445 0.265465C44.5813 0.10223 44.3599 0.0105247 44.129 0.0105247H42.5028H41.2632C40.8506 0.0105247 40.516 0.345078 40.516 0.757767C40.516 1.17046 40.8506 1.50501 41.2632 1.50501H42.0105C42.8359 1.50501 43.505 2.17412 43.505 2.9995V5.10058C43.505 9.00383 43.4522 9.628 43.0566 10.8675C42.3797 12.995 40.5863 14.9466 38.5028 15.8257C36.3226 16.7488 33.9227 16.7224 31.8392 15.7466C29.5007 14.6565 27.9271 12.784 27.259 10.2961C27.0392 9.46976 27.0304 9.4258 26.9953 5.47859L26.9734 3.00823C26.9661 2.18019 27.6353 1.50501 28.4634 1.50501H29.2194C29.6321 1.50501 29.9667 1.17046 29.9667 0.757767C29.9667 0.345078 29.6321 0.0105247 29.2194 0.0105247H27.9975C26.037 0.0105247 26.0195 0.0105247 25.7733 0.221512ZM20.4195 18.9817C21.2195 19.3422 21.6942 20.0894 21.703 21.0037C21.703 21.6982 21.4657 22.2257 20.9294 22.6916C20.2701 23.2806 20.2085 23.2191 20.2085 22.0323V21.7685C20.2085 21.3558 19.874 21.0213 19.4613 21.0213C19.0486 21.0213 18.7141 21.3558 18.7141 21.7685V22.0762V22.8529C18.7141 22.9838 18.5754 23.0682 18.4591 23.0081C17.4042 22.4542 16.9646 21.0828 17.5097 20.0103C18.0723 18.9026 19.2679 18.4806 20.4195 18.9817Z" fill="#FFFFD1"/>
<path d="M5.47524 13.6808C3.26867 14.1731 1.35221 15.7907 0.517053 17.8742C0.385187 18.2258 0.200573 18.85 0.112662 19.2632C-0.159862 20.6082 0.0774979 23.2719 0.657711 25.4169C1.00056 26.6741 1.42254 27.7642 2.2489 29.4609C2.74343 30.479 3.06041 31.5741 3.18616 32.699L3.6379 36.7399C3.99833 39.8959 4.31481 42.6036 4.34118 42.7618C4.51701 43.5618 5.23788 44.4233 6.03787 44.7838C6.67083 45.0651 7.69939 45.0475 8.34114 44.7486C9.22904 44.3266 9.81804 43.5266 10.0027 42.5069C10.0554 42.2255 10.451 39.6058 10.8906 36.6871C11.7433 30.9905 11.7521 30.9378 12.3499 30.4455C13.2554 29.6982 14.6092 29.9971 15.163 31.0608C15.2334 31.1927 15.6817 33.9179 16.1652 37.1179C17.1322 43.5794 17.1235 43.5178 17.8883 44.2299C18.3894 44.6871 18.8993 44.9156 19.5674 44.9859C20.8421 45.1178 22.108 44.309 22.5388 43.0871C22.6706 42.7266 23.4531 36.0981 23.3739 36.0278C23.3476 36.0014 23.0135 35.9575 22.6267 35.9223C22.2358 35.8881 21.8891 36.1725 21.8462 36.5625L21.5542 39.219C21.1322 43.0079 21.1234 43.0519 20.4025 43.3684C19.8311 43.6233 19.33 43.5266 18.8905 43.0871C18.7059 42.9025 18.53 42.6387 18.5037 42.5069C18.4773 42.3662 18.0729 39.7552 17.6158 36.7135C17.1586 33.663 16.7366 31.0257 16.6927 30.8498C16.4465 29.9971 15.4707 29.0125 14.5652 28.7048C13.9235 28.485 12.9301 28.5114 12.2796 28.7576C11.4268 29.074 10.6356 29.9004 10.3279 30.7971C10.2576 31.0169 9.81804 33.7245 9.35211 36.819C8.89498 39.9047 8.47301 42.5332 8.42026 42.6739C8.2796 43.0079 7.7873 43.4211 7.42686 43.4827C6.80269 43.6057 6.15215 43.2629 5.906 42.6739C5.84446 42.5069 5.50161 39.7816 5.13238 36.4674L4.69546 32.5525C4.54828 31.2338 4.17569 29.9502 3.59394 28.7576C2.31044 26.1202 1.80935 24.4323 1.56319 21.9269C1.32584 19.5181 1.7566 18.0324 3.06647 16.705C4.16536 15.5973 5.44886 15.0434 6.94335 15.0434C7.80488 15.0434 8.31476 15.1489 9.44882 15.5797C10.8202 16.0896 11.9367 16.3006 13.396 16.3006C15.1279 16.3094 15.9894 16.1423 18.0553 15.3951C18.7059 15.1577 19.0135 15.0962 19.7696 15.061C21.4399 14.9907 22.6706 15.4742 23.8662 16.661C25.1322 17.9181 25.5365 19.1049 25.4574 21.2412C25.3431 23.9752 24.7366 26.1114 23.1981 29.1971C22.741 30.1026 22.4948 30.7092 22.4509 31.0169L22.4472 31.0439C22.4154 31.2806 22.583 31.4977 22.8201 31.5268C23.0487 31.5531 23.3827 31.5971 23.5585 31.6235C23.875 31.6674 23.875 31.6674 23.9278 31.3246C23.9629 31.14 24.341 30.2521 24.7805 29.3466C26.3541 26.1114 27.0926 23.0433 26.9519 20.239C26.8904 19.0082 26.7409 18.4192 26.231 17.3731C25.4047 15.7028 23.9366 14.4456 22.0992 13.8478C21.5542 13.672 21.1586 13.6105 20.341 13.5753C19.0927 13.5226 18.4773 13.6369 17.0707 14.1467C15.6641 14.6654 14.9169 14.8061 13.4839 14.8061C12.0598 14.8061 11.3389 14.6742 9.94112 14.1643C9.42244 13.9709 8.74553 13.7599 8.42905 13.6896C7.73455 13.5226 6.22248 13.5226 5.47524 13.6808Z" fill="#FFFFD1"/>
<path d="M4.85103 17.2673C3.62027 18.4453 3.09281 19.6585 3.0049 21.4783L2.99009 21.7693C2.96946 22.1752 3.29299 22.5156 3.69939 22.5156C4.11862 22.5156 4.46483 22.1881 4.48809 21.7695L4.49938 21.5662C4.5785 20.0717 4.94773 19.219 5.8708 18.3574C6.16969 18.0839 6.22579 17.6338 6.00317 17.2952L5.9675 17.241C5.7471 16.9104 5.28197 16.8582 4.99383 17.1318L4.85103 17.2673Z" fill="#E5E5E1"/>
</svg>
