<svg width="34" height="34" viewBox="0 0 34 34" fill="none" xmlns="http://www.w3.org/2000/svg">
<g clip-path="url(#clip0_267_2636)">
<path d="M20.6523 0.0470467C19.3906 0.246265 18.6601 0.478687 17.757 0.956812C15.6718 2.0658 14.2242 4.02478 13.7062 6.40876C13.5468 7.14587 13.5468 8.74627 13.7062 9.46345C14.0515 11.0572 14.782 12.4451 15.8312 13.4943C16.9269 14.59 18.0757 15.2474 19.5832 15.6592C20.1675 15.8185 20.3335 15.8318 21.5156 15.8318C22.7109 15.8318 22.857 15.8185 23.4414 15.6592C24.2117 15.44 25.0019 15.1146 25.5996 14.7427L26.0578 14.4705L28.6808 17.0869C30.1285 18.5279 31.3769 19.7431 31.4566 19.783C31.7753 19.9424 31.875 19.8826 32.9175 18.8467C33.8871 17.8771 33.9335 17.824 33.9335 17.5717C33.9335 17.3127 33.8871 17.2595 31.1976 14.5701L28.4683 11.8275L28.6742 11.376C29.2585 10.101 29.4445 9.13142 29.398 7.67048C29.3515 6.32244 29.1523 5.499 28.5878 4.38337C27.3859 1.99939 25.1148 0.399 22.4453 0.0736084C21.9007 0.000562668 20.9976 -0.0127201 20.6523 0.0470467ZM22.6445 1.29548C27.4058 2.1322 29.8031 7.43142 27.2863 11.5552C26.6289 12.631 25.3406 13.7334 24.1917 14.2115C23.2023 14.6232 22.7906 14.7029 21.5488 14.7029C20.1875 14.7029 19.6828 14.5967 18.5605 14.0455C14.5695 12.0998 13.5003 6.93337 16.389 3.55994C17.9097 1.78025 20.3601 0.890406 22.6445 1.29548ZM30.2281 15.1877L32.6054 17.565L32.1605 18.0099L31.7089 18.4615L29.3382 16.0908L26.9742 13.7267L27.3792 13.2685C27.605 13.0228 27.8042 12.817 27.8242 12.817C27.8441 12.817 28.9265 13.8861 30.2281 15.1877Z" fill="#FFFFD1"/>
<path d="M20.6323 2.39062C19.7159 2.55664 18.9124 2.89531 18.2019 3.41992C17.1526 4.19024 16.4753 5.15313 16.0901 6.42148C15.9374 6.93945 15.9175 7.11211 15.9175 7.96875C15.9175 8.82539 15.9374 8.99805 16.0968 9.5293C16.5683 11.0766 17.5312 12.252 18.9323 12.9758C19.862 13.4605 20.3733 13.5801 21.5487 13.5801C22.6046 13.5734 23.0296 13.4938 23.8862 13.1152C25.2808 12.4977 26.4296 11.1828 26.9343 9.62891C27.1003 9.11758 27.1202 8.97148 27.1202 8.03516C27.1269 7.15195 27.1069 6.93281 26.9741 6.48789C26.2769 4.0707 24.1983 2.43711 21.7147 2.35742C21.2964 2.34414 20.805 2.35742 20.6323 2.39062ZM22.4253 3.55938C24.1718 3.91797 25.5464 5.27266 25.9382 7.01914C26.1706 8.075 25.9515 9.3832 25.3937 10.3063C24.1851 12.2984 21.6417 13.0422 19.5565 12.0262C18.5804 11.548 17.8831 10.8375 17.4249 9.86133C15.8776 6.52773 18.8261 2.81563 22.4253 3.55938Z" fill="#FFFFD1"/>
<path d="M20.1344 6.32852L18.5938 7.86914L18.9922 8.26758L19.3906 8.66602L20.918 7.13867C21.7613 6.30195 22.4453 5.57812 22.4453 5.54492C22.4453 5.47852 21.7746 4.78125 21.7148 4.78125C21.6949 4.78125 20.9844 5.47852 20.1344 6.32852Z" fill="#FFFFD1"/>
<path d="M21.9605 8.42031L19.9883 10.3926L20.3867 10.791L20.7852 11.1895L22.7641 9.21055L24.7363 7.23828L24.3379 6.83984L23.9395 6.44141L21.9605 8.42031Z" fill="#FFFFD1"/>
<path d="M6.73349 3.57967C5.90341 3.72576 5.30576 3.92498 4.56865 4.28358C2.24443 5.4324 0.610834 7.59725 0.165913 10.1273C0.0463814 10.818 0.0264595 12.425 0.132709 13.3613C0.418256 15.9312 1.20185 18.3152 2.47021 20.4933L2.90185 21.2305L4.14365 26.7023C4.98701 30.4344 5.43857 32.2871 5.55146 32.5262C6.04951 33.5554 7.21826 34.1465 8.36044 33.9406C9.21044 33.7879 9.96747 33.1902 10.3061 32.4066C10.3925 32.214 10.7577 30.1953 11.3288 26.7621C12.3116 20.9117 12.2718 21.0644 12.803 20.6859C13.0686 20.5066 13.1417 20.4867 13.6132 20.4867C14.0847 20.4867 14.1577 20.5066 14.4167 20.6859C14.9413 21.0512 14.9214 20.9847 15.8644 26.6625C16.3425 29.5113 16.7741 31.9949 16.8272 32.1742C17.219 33.489 18.7132 34.2793 20.028 33.8808C20.7983 33.6484 21.3628 33.1637 21.6815 32.4597C21.7745 32.2472 22.3323 29.9496 23.0761 26.6625L24.3179 21.2172L24.6698 20.6195C25.4003 19.3777 25.9979 18.023 26.3831 16.748C26.5093 16.3496 26.5292 16.1902 26.4761 16.1637C26.1972 16.064 25.4933 15.898 25.4733 15.9312C25.4601 15.9512 25.3804 16.1769 25.3007 16.4359C24.8491 17.8238 24.444 18.7402 23.6671 20.0949L23.2421 20.8254L22.0069 26.2707C21.3296 29.259 20.7186 31.8289 20.6589 31.975C20.2804 32.8316 19.2843 33.1172 18.5007 32.5926C17.9163 32.2074 17.9694 32.4199 16.9733 26.4765C16.2694 22.2597 16.0436 21.0379 15.9175 20.7656C15.7116 20.314 15.187 19.7894 14.6956 19.5437C14.3436 19.3777 14.244 19.3578 13.6132 19.3578C12.9956 19.3578 12.8694 19.3777 12.5374 19.5371C11.8202 19.8691 11.2757 20.5597 11.0964 21.35C11.0565 21.5293 10.6515 23.9398 10.1933 26.6957C9.48271 30.9988 9.34326 31.7558 9.19052 32.0547C8.68583 33.0574 7.28466 33.1238 6.6538 32.1875C6.53427 32.0082 6.20224 30.6535 5.23271 26.3902L3.97099 20.8187L3.59912 20.1879C1.91904 17.3523 1.12216 14.4172 1.21513 11.3957C1.24169 10.4195 1.26826 10.1738 1.42099 9.66248C2.13818 7.23201 3.97099 5.45232 6.41474 4.80154C6.97919 4.65545 7.21162 4.62889 8.06826 4.62889C9.18388 4.62225 9.74169 4.7285 10.8042 5.13358C11.4151 5.37264 12.4046 5.6449 12.6503 5.6449C12.7831 5.6449 12.803 5.59842 12.8429 5.23982C12.9159 4.52264 12.9159 4.53592 12.6038 4.48279C12.4444 4.45623 11.787 4.26365 11.1362 4.04451C9.34326 3.44686 8.18115 3.32732 6.73349 3.57967Z" fill="#FFFFD1"/>
<path d="M7.37109 7.4043V7.96875H7.93555H8.5V7.4043V6.83984H7.93555H7.37109V7.4043Z" fill="#FFFFD1"/>
<path d="M5.54482 7.05898C4.55537 7.49062 3.80498 8.19453 3.3335 9.1375C3.13428 9.53594 2.93506 10.2996 2.88193 10.8641L2.83545 11.3555H3.41318H3.98428V11.1363C3.98428 11.0234 4.03076 10.7113 4.08389 10.459C4.30303 9.42969 4.90732 8.63945 5.81709 8.19453C6.10264 8.05508 6.34834 7.94219 6.35498 7.93555C6.35498 7.93555 6.31514 7.70312 6.26201 7.41758C6.14248 6.82656 6.10928 6.81328 5.54482 7.05898Z" fill="#FFFFD1"/>
</g>
<defs>
<clipPath id="clip0_267_2636">
<rect width="34" height="34" fill="white"/>
</clipPath>
</defs>
</svg>
