<svg width="37" height="37" viewBox="0 0 37 37" fill="none" xmlns="http://www.w3.org/2000/svg">
<g clip-path="url(#clip0_267_2649)">
<path d="M16.6068 0.0722656C15.6312 0.238476 14.6339 0.693748 13.8679 1.32969C12.7261 2.26914 12.1119 3.43984 11.7144 5.39102C11.2808 7.54453 11.2953 9.43789 11.765 12.1623L11.9023 12.9355L11.2591 16.3537C10.905 18.2254 10.6015 19.808 10.5871 19.8514C10.5654 19.9092 10.4136 19.7936 10.2185 19.584C10.0017 19.3455 9.68375 19.1215 9.33687 18.9553C8.84547 18.7096 8.72984 18.6807 8.10113 18.659L7.40738 18.6373L3.93863 19.6201C1.1275 20.415 0.433748 20.6391 0.289216 20.7836L0.108552 20.957L0.0868725 28.4943C0.0724194 32.6352 0.0868725 36.1689 0.108552 36.3424C0.137458 36.5303 0.224177 36.7254 0.325349 36.8266L0.498787 37H18.5002H36.5015L36.675 36.8266C36.7761 36.7254 36.8629 36.5303 36.8918 36.3424C36.9134 36.1689 36.9279 32.6352 36.9134 28.4943L36.8918 20.957L36.7111 20.7836C36.5666 20.6391 35.88 20.415 33.1701 19.649C30.3445 18.8469 29.7086 18.6879 29.1882 18.659C28.798 18.6373 28.4584 18.659 28.2994 18.7168C28.1476 18.7674 28.0103 18.7891 27.9886 18.7674C27.967 18.7457 28.032 18.5434 28.1332 18.3266C28.2632 18.0447 28.5595 17.6689 29.1015 17.1053C30.6046 15.5371 31.4429 14.3809 32.2306 12.7549C33.0472 11.1 33.3869 9.9293 33.3869 8.81641C33.3869 6.5834 32.1005 4.60332 30.041 3.64941C29.1015 3.21582 28.7041 3.15078 27.0275 3.16523C24.9824 3.18691 24.1802 3.04238 22.7855 2.37754C22.4675 2.22578 21.8677 1.85 21.463 1.54648C20.4947 0.831055 20.1478 0.621483 19.5408 0.390232C18.6013 0.0361328 17.5173 -0.0794945 16.6068 0.0722656ZM18.4423 1.33691C19.1072 1.47422 19.7214 1.77773 20.4513 2.33418C21.6943 3.26641 22.5976 3.73613 23.8406 4.07578C24.8306 4.35762 25.4593 4.41543 26.9986 4.39375C28.2199 4.3793 28.5017 4.39375 28.8703 4.50937C30.489 5.00078 31.7031 6.27266 32.0572 7.85527C32.3173 9.0332 32.0789 10.24 31.2189 12.0539C30.4746 13.6076 29.7808 14.5904 28.256 16.2164L27.2298 17.3076L25.3293 21.7158C24.2814 24.1367 23.3636 26.2252 23.2841 26.348C23.0168 26.76 22.3447 26.9334 21.9039 26.7021C21.6148 26.5576 21.333 26.1963 21.2752 25.9145C21.2462 25.7555 21.4847 23.9633 21.9255 21.0221C22.3086 18.4639 22.6193 16.2525 22.6193 16.1152C22.6193 15.7973 22.4603 15.2119 22.2941 14.8939C22.0845 14.482 21.5281 13.9473 21.0656 13.7016C20.6609 13.492 20.5814 13.4775 19.9093 13.4775C19.2373 13.4775 19.1505 13.492 18.717 13.7088C17.7847 14.1641 17.792 14.1568 15.5156 18.8975C14.3955 21.2461 13.4343 23.2334 13.3837 23.3201C13.3332 23.4141 13.1597 23.5514 12.9935 23.6381C12.6322 23.8187 12.1191 23.7971 11.83 23.5875C11.5988 23.4213 11.3459 22.9371 11.3459 22.6697C11.3459 22.5613 11.7505 20.3355 12.2492 17.7195L13.1453 12.9572L12.9285 11.707C12.8128 11.0205 12.69 10.0232 12.6466 9.48848C12.5021 7.46504 12.8707 5.05137 13.5211 3.69277C14.381 1.91504 16.4695 0.917774 18.4423 1.33691ZM20.567 14.8217C20.9427 15.0023 21.2173 15.342 21.333 15.7828C21.4125 16.0791 21.3836 16.3537 21.0873 18.3627C20.8994 19.5984 20.7404 20.6246 20.7259 20.6391C20.7115 20.6535 20.4875 20.7186 20.2273 20.7908C19.4974 20.9932 17.7847 20.9715 17.0043 20.7475C16.0214 20.4729 15.9781 20.7619 17.3728 17.8641C18.6013 15.3059 18.8037 14.9662 19.2589 14.7711C19.5914 14.6266 20.2129 14.6482 20.567 14.8217ZM8.74429 20.0248C9.17789 20.2199 9.51754 20.5596 9.72711 20.9932L9.90054 21.3545V26.377C9.90054 29.1375 9.93668 31.609 9.97281 31.8619C10.1029 32.7652 10.7388 33.6975 11.5337 34.1383C12.7045 34.7959 14.2003 34.6369 15.1832 33.7625C15.689 33.3072 15.8914 32.9387 16.7007 30.9297C17.3222 29.3904 17.4884 29.0436 17.7125 28.8268C18.1822 28.3715 18.8181 28.3715 19.2878 28.8268C19.5119 29.0436 19.6781 29.3904 20.2996 30.9225C21.2246 33.2205 21.4341 33.5529 22.1857 34.0371C23.631 34.9621 25.575 34.5719 26.5072 33.1699C27.0853 32.31 27.0564 32.6352 27.0998 26.5938C27.1359 21.2461 27.1359 21.21 27.2949 20.9209C27.4972 20.5379 27.8586 20.2055 28.256 20.0248C28.892 19.7357 29.2027 19.7936 32.592 20.7619L35.6632 21.6436L35.6849 28.7039L35.6994 35.7715H18.5002H1.30094L1.31539 28.7039L1.33707 21.6436L4.40836 20.7619C7.79761 19.7936 8.10836 19.7357 8.74429 20.0248ZM16.8597 21.976C17.633 22.1783 19.165 22.2361 19.9671 22.0988C20.2707 22.041 20.5236 22.0193 20.5236 22.0555C20.5236 22.0916 20.408 22.8865 20.2634 23.8332C19.9238 26.1168 19.9744 26.5287 20.7043 27.3092C21.1017 27.7283 21.6148 27.974 22.2218 28.0174C22.7494 28.0607 23.1107 27.974 23.631 27.6633C24.1658 27.3453 24.4043 26.9551 25.1847 25.1484C25.5316 24.3318 25.8279 23.6525 25.8496 23.6309C25.864 23.6164 25.864 25.452 25.8568 27.7139L25.8351 31.833L25.6328 32.2449C25.1703 33.1916 24.0429 33.5891 23.0818 33.141C22.4675 32.852 22.2652 32.5412 21.5281 30.684C20.7259 28.6678 20.5959 28.4004 20.2273 28.0029C19.3457 27.0418 17.6546 27.0418 16.773 28.0029C16.4045 28.4004 16.2744 28.6678 15.4722 30.684C14.7351 32.534 14.5617 32.8158 13.933 33.1266C13.2898 33.4518 12.4009 33.3506 11.8445 32.8881C11.7072 32.7725 11.4976 32.5051 11.382 32.2955L11.1652 31.9053L11.1435 28.2631C11.1218 24.7871 11.1291 24.6281 11.2519 24.6787C11.9962 24.9895 12.1191 25.0184 12.6105 24.9895C13.7451 24.9172 14.157 24.5342 15.0097 22.7926L15.6168 21.5424L15.942 21.6869C16.1226 21.7592 16.5345 21.8965 16.8597 21.976Z" fill="#FFFFD1"/>
<path d="M16.419 3.25918C15.2628 3.82285 14.4101 4.84902 13.9548 6.21484C13.8319 6.5834 13.738 6.89414 13.7524 6.90137C13.8103 6.95195 14.7208 7.22656 14.8148 7.22656C14.9015 7.22656 14.9737 7.09648 15.0605 6.77852C15.3712 5.66562 16.036 4.81289 16.961 4.35762C17.3513 4.16973 17.4886 4.06133 17.4669 3.98184C17.4452 3.9168 17.373 3.66387 17.3079 3.41094C17.2356 3.16523 17.1417 2.96289 17.0983 2.96289C17.055 2.96289 16.7515 3.09297 16.419 3.25918Z" fill="#FFFFD1"/>
</g>
<defs>
<clipPath id="clip0_267_2649">
<rect width="37" height="37" fill="white"/>
</clipPath>
</defs>
</svg>
