<svg width="31" height="37" viewBox="0 0 31 37" fill="none" xmlns="http://www.w3.org/2000/svg">
<path d="M4.61855 0.121451C4.33231 0.457781 4.40387 0.629523 5.16956 1.35227C5.64185 1.8031 5.74919 1.8675 5.9424 1.84604C6.24295 1.81741 6.40754 1.52402 6.26442 1.25925C6.11415 0.987321 5.01929 -0.000200152 4.86901 -0.000200152C4.7903 -0.000200152 4.6758 0.0570474 4.61855 0.121451Z" fill="#FFFFD1"/>
<path d="M7.79574 0.593673C7.06583 1.30927 7.03005 1.37367 7.1517 1.63129C7.22326 1.7744 7.30913 1.83165 7.48088 1.84596C7.69556 1.86743 7.78143 1.81018 8.36106 1.23055C8.7117 0.879911 8.99794 0.543581 8.99794 0.486333C8.99794 0.307435 8.7117 -0.000271082 8.54711 -0.000271082C8.44693 -0.000271082 8.175 0.214407 7.79574 0.593673Z" fill="#FFFFD1"/>
<path d="M5.11231 3.26983C4.58993 3.79937 4.48975 3.93534 4.48975 4.12855C4.48975 4.37901 4.64002 4.50781 4.9191 4.50781C5.10516 4.50781 6.35029 3.31277 6.35029 3.14103C6.35029 2.94782 6.06406 2.64727 5.89231 2.64727C5.78497 2.64727 5.52736 2.85479 5.11231 3.26983Z" fill="#FFFFD1"/>
<path d="M7.21644 2.83382C7.13057 2.94116 7.06616 3.06996 7.06616 3.12721C7.06616 3.25602 8.068 4.30079 8.3113 4.43675C8.5546 4.5584 8.84799 4.47253 8.92671 4.25069C9.01974 4.0217 9.00542 4.00024 8.30414 3.26317C7.66011 2.5762 7.47405 2.50464 7.21644 2.83382Z" fill="#FFFFD1"/>
<path d="M12.9624 3.74811C10.8228 4.23471 8.84775 6.05948 7.53821 8.76443C7.32353 9.19379 7.08023 9.75195 6.99436 9.99525C6.89438 10.277 6.67687 10.5014 6.39836 10.6101L6.25014 10.6679C4.13913 11.5052 2.36446 12.7503 1.34116 14.1099C-1.52122 17.9026 0.325011 22.1675 5.67051 24.1211C6.0283 24.2499 6.73674 24.5147 7.24481 24.7079C8.26812 25.0943 8.66885 25.1444 9.06243 24.9369C9.19839 24.8725 9.6349 24.4932 10.0285 24.1139L10.0721 24.0717C10.4505 23.7044 11.0522 23.7041 11.431 24.071C12.1538 24.7651 12.4043 24.9011 12.9982 24.9011C13.3131 24.9011 13.7424 24.7508 13.9356 24.5791C14.0358 24.4861 14.5868 24.9798 18.8732 28.9442C21.9002 31.7565 23.8108 33.4739 24.004 33.567C24.4477 33.7816 25.0631 33.8246 25.5354 33.6671C25.8861 33.5526 26.0864 33.3737 27.8754 31.5991C30.0651 29.4237 30.1439 29.3235 30.1367 28.5149C30.1295 27.8565 29.9506 27.4844 29.2923 26.776C29.0061 26.4754 27.124 24.436 25.1061 22.2534C23.0809 20.0708 21.3063 18.153 21.1488 17.9884C20.9833 17.8187 20.9492 17.5603 21.0651 17.3534L21.0701 17.3444C21.2275 17.0653 21.2705 16.9007 21.2633 16.5644C21.2633 15.9919 21.1345 15.7629 20.3903 15.0116C20.0483 14.6656 20.0457 14.1098 20.3843 13.7606L20.4619 13.6806C20.8411 13.2941 21.2132 12.8433 21.2991 12.6787C21.5281 12.2208 21.4923 11.913 21.0701 10.8182C20.8554 10.2815 20.5763 9.54443 20.4475 9.19379C19.4386 6.42443 17.714 4.52095 15.6173 3.84829C15.0448 3.66224 13.5778 3.61214 12.9624 3.74811ZM15.1378 4.61398C17.1057 5.07911 18.8017 7.01838 19.825 9.98094C19.9609 10.3745 20.1899 10.9756 20.333 11.3191C20.6121 11.9989 20.6336 12.1134 20.4905 12.371C20.4046 12.5285 10.3863 22.604 9.19839 23.7275C8.62591 24.2714 8.48279 24.2928 7.73142 23.9708C7.45234 23.8563 6.81546 23.613 6.30739 23.427C5.11234 22.9976 4.33234 22.6183 3.5595 22.1031C2.34299 21.2873 1.47712 20.2283 1.08354 19.069C0.840239 18.3534 0.811615 17.3301 1.00483 16.6002C1.57015 14.5107 3.50225 12.7288 6.55069 11.4908C7.55252 11.083 7.49527 11.1402 7.85307 10.2028C8.98371 7.26884 10.9015 5.18645 12.9624 4.64976C13.585 4.48517 14.5224 4.47086 15.1378 4.61398ZM20.147 15.9776C20.4046 16.2996 20.4833 16.5215 20.4189 16.7576C20.3975 16.8507 18.7802 18.5251 16.8195 20.4787C13.4419 23.8563 13.2415 24.0424 12.9982 24.0424C12.6976 24.0424 12.3685 23.8205 11.7888 23.2266C11.5709 23.0047 11.5725 22.6486 11.7924 22.4287L15.2881 18.933L18.8443 15.3768C19.0365 15.1847 19.3459 15.1782 19.5459 15.3622C19.7463 15.534 20.0182 15.813 20.147 15.9776ZM20.5263 18.5824C20.6622 18.7327 20.8483 18.9473 20.9485 19.0547C21.0454 19.1677 21.0389 19.3364 20.9336 19.4417L18.3723 22.0029L16.0619 24.3134C15.8197 24.5555 15.4313 24.5684 15.1736 24.3429C14.9303 24.1283 14.7228 23.9136 14.7228 23.8706C14.7228 23.7919 20.1613 18.3176 20.2329 18.3176C20.2543 18.3176 20.3903 18.4393 20.5263 18.5824ZM22.8806 21.1728C22.8806 21.1943 21.6784 22.418 20.2186 23.8778L18.1732 25.9177C17.8251 26.2648 17.2647 26.2741 16.9053 25.9387C16.5532 25.61 16.5432 25.0549 16.8834 24.7139L18.9806 22.6112L21.0922 20.494C21.4253 20.16 21.9682 20.166 22.2938 20.5073C22.6158 20.8437 22.8806 21.1442 22.8806 21.1728ZM24.6696 23.105C24.6696 23.1264 23.5031 24.3143 22.0719 25.7455L20.0971 27.7204C19.7508 28.0666 19.1915 28.073 18.8375 27.7349C18.4846 27.4016 18.4763 26.843 18.819 26.4994L20.8411 24.4717L22.8812 22.4261C23.2143 22.0921 23.7572 22.0981 24.0828 22.4394C24.4048 22.7758 24.6696 23.0763 24.6696 23.105ZM26.4585 25.0299C26.4585 25.0585 25.3207 26.2178 23.9325 27.606L22.0328 29.5057C21.684 29.8545 21.121 29.8625 20.7624 29.5238C20.4129 29.1901 20.4061 28.6342 20.7474 28.292L22.7017 26.3323L24.6739 24.3546C25.0055 24.022 25.5456 24.0264 25.8718 24.3644C26.1938 24.7007 26.4585 25.0013 26.4585 25.0299ZM28.2475 26.962C28.2475 26.9906 27.1455 28.1213 25.793 29.4666L23.9518 31.3025C23.605 31.6482 23.0473 31.6591 22.6874 31.3271C22.3356 31.0028 22.3237 30.4512 22.6611 30.1119L24.5551 28.2071L26.4637 26.2876C26.7948 25.9547 27.3347 25.9587 27.6607 26.2965C27.9828 26.6328 28.2475 26.9334 28.2475 26.962ZM29.0848 27.8851C29.2923 28.2644 29.3352 28.5149 29.2494 28.8226C29.1921 29.0301 28.8057 29.4594 27.3387 30.9264C26.3226 31.9354 25.3995 32.8013 25.2921 32.8442C24.8985 32.9873 24.4334 32.8943 24.0613 32.6081C23.9253 32.5007 24.0112 32.4005 26.3512 30.0534C27.6894 28.7152 28.82 27.6204 28.8629 27.6204C28.8987 27.6204 29.0061 27.742 29.0848 27.8851Z" fill="#FFFFD1"/>
<path d="M13.1487 7.26976C12.4903 7.40572 11.832 7.75637 11.374 8.20003C11.052 8.50774 10.9947 8.60077 11.0376 8.74389C11.1665 9.17324 11.4956 9.18756 11.9679 8.79398C13.1844 7.77783 14.8589 7.78499 16.1398 8.80113C16.605 9.17324 16.8197 9.17324 17.0057 8.81545C17.113 8.60792 17.0415 8.47196 16.6264 8.10701C15.7391 7.32701 14.3795 6.99783 13.1487 7.26976Z" fill="#FFFFD1"/>
<path d="M10.05 12.4365C9.81388 12.7012 9.89975 12.8801 10.5653 13.5385C11.2379 14.204 11.3953 14.2756 11.6458 14.0251C11.9034 13.7675 11.8247 13.6029 11.1664 12.9374C10.5008 12.2719 10.2862 12.1717 10.05 12.4365Z" fill="#FFFFD1"/>
<path d="M13.1988 12.9374C12.5404 13.6029 12.4617 13.7675 12.7193 14.0251C12.9698 14.2756 13.1272 14.204 13.7999 13.5385C14.4725 12.873 14.5727 12.6655 14.308 12.4293C14.0432 12.186 13.8571 12.2719 13.1988 12.9374Z" fill="#FFFFD1"/>
<path d="M4.56875 14.9692C4.20379 15.3485 3.82453 16.0712 3.67425 16.6437C3.35224 17.8817 3.76728 19.5991 4.58306 20.4077C4.9337 20.7655 5.2915 20.7727 5.42746 20.4149C5.49902 20.2145 5.43462 20.0499 5.1126 19.6778C4.99095 19.5419 4.79774 19.2198 4.67609 18.9622C4.47572 18.5329 4.46141 18.4398 4.45425 17.6742C4.45425 16.9013 4.46857 16.8226 4.67609 16.3861C4.79774 16.1285 5.03389 15.7635 5.19847 15.5632C5.52049 15.1767 5.54911 15.0694 5.37737 14.8261C5.19847 14.5685 4.90508 14.6186 4.56875 14.9692Z" fill="#FFFFD1"/>
<path d="M10.5508 15.5856C10.1429 15.9935 9.92822 16.2654 9.92822 16.3727C9.92822 16.5373 10.1572 16.8164 10.286 16.8164C10.4721 16.8164 10.7869 16.5803 11.2735 16.0793C11.8174 15.514 11.9033 15.2993 11.66 15.0775C11.3952 14.8342 11.2091 14.9201 10.5508 15.5856Z" fill="#FFFFD1"/>
<path d="M12.6979 15.0847C12.476 15.328 12.5547 15.5212 13.0986 16.0793C13.578 16.5803 13.8929 16.8164 14.079 16.8164C14.2078 16.8164 14.4367 16.5373 14.4367 16.3727C14.4367 16.2654 14.2221 15.9935 13.8142 15.5856C13.1487 14.9201 12.934 14.8199 12.6979 15.0847Z" fill="#FFFFD1"/>
<path d="M26.1938 11.6932C26.0729 11.7969 26.0277 11.9639 26.0799 12.1143L26.3011 12.7523C26.6804 13.8615 26.6875 14.162 26.3512 15.1353C25.8574 16.5593 25.9863 16.6952 27.4174 16.2086C27.9327 16.0297 28.4407 15.8866 28.5338 15.8866C28.6268 15.8866 29.1349 16.0297 29.6573 16.2086C30.4158 16.4734 30.6376 16.5235 30.7521 16.4591C31.067 16.2945 31.0598 16.1586 30.7092 15.1353C30.3299 14.0046 30.3299 13.9903 30.7593 12.7809C30.9167 12.3444 31.024 11.9365 30.9954 11.865C30.9739 11.7934 30.8809 11.6789 30.7807 11.6217C30.6233 11.5143 30.5661 11.5215 29.7717 11.8077C28.6697 12.2013 28.4121 12.2013 27.2958 11.8149C26.8307 11.6503 26.4371 11.5215 26.4228 11.5215C26.4085 11.5215 26.3011 11.6002 26.1938 11.6932ZM27.9541 12.9169C28.4622 13.0529 28.8343 13.0314 29.414 12.8382C29.6072 12.7738 29.7789 12.738 29.8004 12.7595C29.8218 12.7809 29.7789 12.9742 29.7073 13.1817C29.5356 13.6683 29.5356 14.3839 29.7073 14.8705C29.7998 15.1385 29.6619 15.2775 29.3856 15.214C29.3288 15.201 29.2686 15.1866 29.2064 15.171C28.6053 15.0136 28.1903 15.0279 27.6464 15.214C27.1956 15.3786 27.1741 15.3571 27.3387 14.8991C27.5248 14.3624 27.5176 13.6826 27.3316 13.1459L27.2403 12.8766C27.2176 12.8097 27.277 12.7438 27.3459 12.7595C27.4246 12.7809 27.7037 12.8453 27.9541 12.9169Z" fill="#FFFFD1"/>
<path d="M4.31073 27.0852C4.21055 27.1782 4.13184 27.2856 4.13184 27.3214C4.13184 27.3571 4.25349 27.7364 4.41092 28.1658C4.84028 29.3751 4.84028 29.3894 4.45385 30.5201C4.13899 31.436 4.12468 31.5076 4.23202 31.665C4.29642 31.7581 4.40376 31.8511 4.47532 31.8726C4.54688 31.9012 4.95477 31.7867 5.38413 31.6293C6.40743 31.25 6.7366 31.25 7.88155 31.6293C8.77605 31.9226 8.91201 31.9226 9.06944 31.6293C9.12669 31.5219 9.0766 31.2858 8.81898 30.5344C8.64008 30.012 8.49697 29.5039 8.49697 29.4109C8.49697 29.3179 8.64008 28.8098 8.81898 28.2874C9.08375 27.5289 9.13385 27.3071 9.06944 27.1926C8.90486 26.8849 8.77605 26.892 7.73844 27.2355C6.60064 27.6148 6.61495 27.6148 5.36982 27.1926C4.91183 27.0351 4.52541 26.9063 4.5111 26.9063C4.49679 26.9063 4.40376 26.985 4.31073 27.0852ZM6.02816 28.2946C6.57202 28.4449 6.70798 28.4377 7.35201 28.2731C7.64541 28.1944 7.89587 28.1443 7.91018 28.1586C7.92449 28.1729 7.88155 28.359 7.80999 28.5665C7.73844 28.7812 7.68119 29.1461 7.68119 29.4109C7.68119 29.6757 7.73844 30.0406 7.80999 30.2553C7.88155 30.4628 7.92449 30.656 7.90302 30.6775C7.88155 30.699 7.68834 30.656 7.48082 30.5845C6.99422 30.4127 6.27862 30.4127 5.79202 30.5845C5.52201 30.6776 5.38116 30.5341 5.45304 30.2577C5.46696 30.2041 5.48228 30.1479 5.49862 30.0907C5.66321 29.4682 5.65605 29.1748 5.42706 28.5093L5.34297 28.2614C5.32028 28.1945 5.37966 28.1287 5.44853 28.1443C5.52725 28.1586 5.79202 28.2302 6.02816 28.2946Z" fill="#FFFFD1"/>
<path d="M13.9139 32.2575C13.6778 32.5151 13.7637 32.7084 14.3504 33.288C15.1018 34.0251 15.2593 34.0966 15.5097 33.8462C15.7602 33.5957 15.6886 33.4311 15.0303 32.7656C14.3719 32.0858 14.1572 31.9928 13.9139 32.2575Z" fill="#FFFFD1"/>
<path d="M17.063 32.7585C16.3689 33.4526 16.2831 33.6673 16.6265 33.8963C16.8054 34.0108 16.8269 34.0108 17.063 33.882C17.3708 33.7103 18.301 32.7299 18.301 32.5653C18.301 32.3506 18.0864 32.1288 17.886 32.1288C17.7357 32.1288 17.5425 32.2719 17.063 32.7585Z" fill="#FFFFD1"/>
<path d="M14.422 35.3712C13.8853 35.8721 13.7922 35.9937 13.7922 36.1941C13.7922 36.3587 13.8423 36.4517 13.9783 36.5447C14.1572 36.6592 14.1787 36.6592 14.4148 36.5304C14.7726 36.3372 15.6528 35.3712 15.6528 35.178C15.6528 35.0849 15.5955 34.9633 15.524 34.8989C15.2735 34.6699 15.0732 34.7486 14.422 35.3712Z" fill="#FFFFD1"/>
<path d="M16.5544 34.892C16.3254 35.1139 16.4184 35.3428 16.9623 35.901C17.5777 36.545 17.7995 36.681 18.0357 36.5594C18.4507 36.3375 18.3935 36.1372 17.6779 35.4144C17.0267 34.7417 16.8048 34.6416 16.5544 34.892Z" fill="#FFFFD1"/>
</svg>
