<svg width="41" height="38" viewBox="0 0 41 38" fill="none" xmlns="http://www.w3.org/2000/svg">
<path d="M19.7862 0.121949C19.7154 0.200578 19.5031 0.601587 19.3144 1.01046C18.8269 2.05623 18.5989 2.29211 17.5846 2.77961C16.5781 3.26711 16.4995 3.32215 16.4995 3.60522C16.4995 3.88828 16.6253 3.98264 17.6003 4.44655C18.5989 4.91833 18.7876 5.1149 19.3144 6.22357C19.7469 7.12781 19.8491 7.24575 20.1715 7.20643C20.3681 7.18285 20.4467 7.07277 20.8634 6.26288C21.1229 5.75966 21.4453 5.23284 21.5711 5.09131C21.7048 4.95764 22.208 4.64312 22.7034 4.39937C23.1987 4.15562 23.639 3.90401 23.6784 3.83324C23.7255 3.76248 23.7334 3.61308 23.7019 3.503C23.6626 3.33002 23.4896 3.20421 22.7191 2.82679C22.208 2.56732 21.689 2.2528 21.5711 2.11913C21.4453 1.99332 21.1308 1.46651 20.8713 0.955418C20.431 0.0983601 20.3759 0.0275941 20.1479 0.00400543C19.9985 -0.0117207 19.8648 0.0275941 19.7862 0.121949ZM20.4231 2.15844C20.714 2.71671 21.1622 3.13344 21.7519 3.40078C21.9328 3.47941 22.0822 3.57377 22.0822 3.59736C22.0822 3.62095 21.8856 3.74675 21.6497 3.87256C21.0836 4.17135 20.6826 4.5645 20.3917 5.12276C20.2658 5.36651 20.1322 5.57095 20.1086 5.57095C20.085 5.57095 20.0064 5.43728 19.9277 5.27216C19.6368 4.66671 19.2751 4.27357 18.709 3.95905C18.4023 3.78607 18.1507 3.62881 18.1507 3.60522C18.1507 3.58163 18.3552 3.45582 18.5989 3.33002C19.1572 3.03909 19.5503 2.63808 19.8491 2.07195C19.9749 1.83606 20.0929 1.63949 20.1165 1.63949C20.14 1.63949 20.2737 1.87538 20.4231 2.15844Z" fill="#FFFFD1"/>
<path d="M12.332 7.14314C9.54069 7.50484 7.44915 8.9752 6.54492 11.2161C5.77435 13.119 5.82153 15.3992 6.67859 17.8917C6.85157 18.4028 7.38625 19.6216 7.85803 20.5966C9.12395 23.2385 9.34412 24.017 9.34412 25.9748C9.34412 26.9655 9.5171 28.6954 9.69795 29.5524C10.327 32.5246 12.4893 35.945 14.3842 36.9829C14.6594 37.1244 14.9504 37.2109 15.2806 37.2424C15.7131 37.2738 15.8232 37.2502 16.1927 37.0537C16.9004 36.6684 17.5451 35.6069 17.7496 34.4589C17.7967 34.2073 17.8675 32.3674 17.9068 30.3781C17.9619 26.9813 17.9776 26.7297 18.1427 26.2343C18.473 25.2043 19.157 24.5359 19.9512 24.4573C20.879 24.3708 21.6496 25.0155 22.0978 26.2657C22.2707 26.7454 22.2786 26.8633 22.3179 30.5746L22.3504 33.7217C22.3549 34.163 22.4316 34.6006 22.5774 35.0172C23.4816 37.5726 25.1564 37.9579 27.0671 36.0472C28.1443 34.97 29.1508 33.3817 29.8349 31.6833C30.5347 29.9456 30.7627 28.6639 30.8885 25.8569C30.9907 23.5688 31.0458 23.3722 32.4218 20.5101C33.271 18.7488 33.6484 17.7581 33.9629 16.5C34.128 15.8395 34.1516 15.5722 34.1437 14.2198C34.1437 12.4899 34.0494 11.9631 33.5226 10.9016C32.2252 8.23609 29.2766 6.80504 25.7776 7.13528C24.1185 7.29254 22.3258 7.77217 20.7611 8.47984L20.4001 8.63934C20.2007 8.72745 19.9722 8.72084 19.7782 8.62137C18.7875 8.11814 16.7824 7.48125 15.5165 7.26109C14.6516 7.11169 13.024 7.04879 12.332 7.14314ZM14.8482 8.11814C16.3185 8.31472 18.0248 8.82581 19.4086 9.49415C19.6917 9.62782 19.9984 9.7379 20.0927 9.7379C20.1792 9.7379 20.6431 9.56492 21.1149 9.35262C25.9034 7.20605 30.3381 7.70141 32.2566 10.595C32.9722 11.6722 33.2631 12.6944 33.2552 14.1726C33.2552 16.0204 32.8542 17.42 31.5647 20.1091C30.1415 23.0734 30.0472 23.4194 29.9449 25.8805C29.827 28.7111 29.5833 29.9928 28.8363 31.6833C27.7748 34.1129 25.8641 36.3146 24.8341 36.3146C24.3387 36.3146 23.7962 35.7091 23.4895 34.8206C23.3087 34.3252 23.3008 34.2073 23.2615 30.496C23.2143 27.1857 23.1907 26.6196 23.0728 26.2186C22.7347 25.0627 22.0899 24.2135 21.2328 23.7968C20.7768 23.5688 20.6353 23.5373 20.077 23.5373C19.5502 23.5373 19.3772 23.5688 19.0076 23.7496C18.182 24.1585 17.5609 24.9448 17.1992 26.0534C17.0262 26.5881 17.0183 26.7139 16.9711 30.4174C16.9318 34.0107 16.9161 34.2623 16.7588 34.7184C16.5465 35.3474 16.2556 35.8506 15.9411 36.1101C15.43 36.5426 14.7459 36.2988 13.7788 35.3317C12.2062 33.7434 10.8145 30.8813 10.4842 28.5303C10.4135 28.0349 10.327 26.8319 10.2877 25.8647C10.2405 24.8819 10.154 23.8911 10.0911 23.6081C9.91811 22.8454 9.55642 21.9726 8.66791 20.1091C7.82657 18.3635 7.40984 17.2391 7.18182 16.1462C6.99311 15.2813 6.93806 13.7401 7.06387 12.9774C7.63 9.4627 10.6729 7.56774 14.8482 8.11814Z" fill="#FFFFD1"/>
<path d="M13.5121 10.8078C12.8044 10.9572 11.8294 11.4526 11.279 11.9558C10.3512 12.7814 9.67498 14.1574 9.63567 15.3211C9.61994 15.9187 9.7143 16.1074 10.0603 16.1074C10.3748 16.1074 10.5085 15.9344 10.5635 15.4233C10.7286 13.9058 11.5149 12.7106 12.7415 12.0895C13.2369 11.8379 14.0232 11.6256 14.4635 11.6256C14.7937 11.6256 15.006 11.4369 15.006 11.1381C15.006 10.6899 14.5421 10.5798 13.5121 10.8078Z" fill="#FFFFD1"/>
<path d="M25.3608 10.824C25.0541 11.1621 25.2979 11.626 25.7854 11.626C26.2178 11.626 27.0041 11.8383 27.4916 12.0899C28.7182 12.7111 29.5045 13.9062 29.6697 15.4238C29.7326 15.9506 29.8662 16.1236 30.2122 16.0921C30.5818 16.0528 30.6761 15.7933 30.5739 15.07C30.4009 13.8276 29.8269 12.7347 28.9384 11.9405C27.9241 11.0284 25.7775 10.3601 25.3608 10.824Z" fill="#FFFFD1"/>
<path d="M23.8123 14.2202C23.6708 14.3617 23.655 14.4797 23.655 15.3839C23.655 16.5162 23.7337 16.7363 24.1268 16.7363C24.5514 16.7363 24.5986 16.6027 24.5986 15.3996C24.5986 14.3617 24.5907 14.2988 24.4256 14.1887C24.1897 14.0236 24.001 14.0315 23.8123 14.2202Z" fill="#FFFFD1"/>
<path d="M20.7452 17.3091C20.525 17.4191 20.4464 17.7337 20.588 17.9931C20.6666 18.1425 20.7452 18.1504 21.8539 18.1504C23.0255 18.1504 23.0255 18.1504 23.1119 17.9617C23.2378 17.6865 23.1355 17.372 22.8996 17.2855C22.6009 17.1675 20.9811 17.1911 20.7452 17.3091Z" fill="#FFFFD1"/>
<path d="M25.3846 17.2938C25.0465 17.4354 24.96 17.7892 25.2116 18.0172C25.4161 18.1981 27.5155 18.2138 27.657 18.0408C27.8221 17.8442 27.7278 17.4196 27.5076 17.3096C27.2717 17.1916 25.6756 17.1759 25.3846 17.2938Z" fill="#FFFFD1"/>
<path d="M14.3608 17.372C14.235 17.4428 14.2192 17.5843 14.2192 18.5829C14.2192 19.5029 14.2428 19.7309 14.345 19.8331C14.4944 19.9904 14.7696 19.9904 14.9741 19.8489C15.1077 19.7466 15.1235 19.6366 15.1235 18.6222C15.1235 17.6079 15.1077 17.4979 14.9741 17.3956C14.7932 17.2698 14.5495 17.2541 14.3608 17.372Z" fill="#FFFFD1"/>
<path d="M23.9302 18.7169C23.8437 18.7641 23.7494 18.8427 23.7179 18.8899C23.6865 18.9371 23.655 19.4403 23.655 20.0143C23.655 21.0443 23.655 21.0522 23.8673 21.2095C24.001 21.3195 24.1347 21.3589 24.2369 21.3274C24.5593 21.2331 24.5986 21.0758 24.5986 19.9986C24.5986 18.9214 24.5514 18.7562 24.2447 18.6697C24.1583 18.6462 24.0167 18.6697 23.9302 18.7169Z" fill="#FFFFD1"/>
<path d="M11.1527 20.5887C10.964 20.7774 10.9562 20.9661 11.1213 21.202C11.2314 21.3671 11.2943 21.375 12.3007 21.375C12.8904 21.375 13.433 21.3357 13.5195 21.2964C13.6217 21.2413 13.6689 21.1312 13.6689 20.9425C13.6689 20.5022 13.4802 20.4315 12.3164 20.4315C11.4122 20.4315 11.2943 20.4472 11.1527 20.5887Z" fill="#FFFFD1"/>
<path d="M15.8079 20.5573C15.6113 20.6909 15.5642 21.1155 15.7293 21.2806C15.7922 21.3435 16.1775 21.375 16.9402 21.375C18.0095 21.375 18.0724 21.3671 18.1825 21.202C18.3476 20.9661 18.3398 20.7774 18.1511 20.5887C18.0095 20.4472 17.8916 20.4315 16.9874 20.4315C16.2089 20.4315 15.9495 20.455 15.8079 20.5573Z" fill="#FFFFD1"/>
<path d="M14.3529 21.9881C14.2428 22.106 14.2192 22.3183 14.2192 23.2383C14.2192 24.4649 14.2507 24.5514 14.7067 24.5042C15.1077 24.4649 15.1707 24.2605 15.1471 23.081C15.1235 22.1846 15.1077 22.0588 14.9741 21.9566C14.7618 21.8072 14.5023 21.8151 14.3529 21.9881Z" fill="#FFFFD1"/>
<path d="M3.35275 19.2687C3.28198 19.3237 3.0225 19.7876 2.77875 20.2909C2.49569 20.8727 2.24408 21.2894 2.08682 21.4231C1.94528 21.5411 1.44206 21.8241 0.954558 22.0521C0.207581 22.3981 0.0660485 22.5003 0.018871 22.6812C-0.0125807 22.7991 -0.00471775 22.9485 0.0424597 23.0193C0.0817743 23.0901 0.553549 23.3574 1.08823 23.6247C1.61504 23.8842 2.11827 24.1909 2.20476 24.2931C2.28339 24.3953 2.55073 24.8671 2.78662 25.3388C3.29771 26.3689 3.32916 26.4082 3.60436 26.4082C3.88742 26.4082 3.99751 26.2745 4.4221 25.3782C4.61868 24.9536 4.87815 24.5054 4.98823 24.3638C5.1219 24.2145 5.57009 23.9314 6.15194 23.6405C6.67876 23.381 7.12695 23.1215 7.16626 23.0743C7.19771 23.0271 7.21344 22.8778 7.20557 22.7519C7.18199 22.5396 7.10336 22.4767 6.26203 22.0443C5.7588 21.7848 5.23198 21.4624 5.09831 21.3366C4.95678 21.203 4.66585 20.7312 4.45356 20.2751C4.23339 19.8191 3.99751 19.3866 3.9346 19.308C3.79307 19.1507 3.53359 19.135 3.35275 19.2687ZM3.90315 21.2973C4.22553 21.887 4.57936 22.2251 5.18481 22.5554C5.3892 22.6626 5.39092 22.9546 5.1878 23.0642L5.16908 23.0743C4.53218 23.4124 4.22553 23.7191 3.88742 24.356L3.8428 24.44C3.74949 24.6156 3.49674 24.6125 3.40779 24.4346C3.06182 23.7584 2.82593 23.5068 2.21262 23.1451L2.12998 23.0971C1.90919 22.9688 1.91143 22.6491 2.13399 22.5239C2.72371 22.2015 3.06182 21.8477 3.35275 21.2501C3.46283 21.0142 3.58077 20.8255 3.60436 20.8255C3.62795 20.8255 3.76162 21.0378 3.90315 21.2973Z" fill="#FFFFD1"/>
<path d="M36.2986 19.4635C36.2279 19.5422 35.9762 19.9904 35.7404 20.47C35.5045 20.9418 35.2057 21.4293 35.0799 21.5394C34.9619 21.6573 34.4666 21.9482 33.9791 22.192C32.5795 22.8918 32.5873 23.0805 34.0577 23.796C35.1821 24.3464 35.1978 24.3621 35.8426 25.6517C36.1178 26.1942 36.3301 26.5323 36.4323 26.5716C36.7704 26.6817 36.9277 26.5166 37.368 25.5966C37.6117 25.1013 37.9184 24.5823 38.0599 24.4329C38.2014 24.2914 38.7204 23.9926 39.2079 23.7646C40.5839 23.1119 40.5839 22.8603 39.2158 22.192C38.7676 21.9718 38.2879 21.6966 38.1464 21.5787C37.997 21.4529 37.7139 21.0047 37.4466 20.4857C36.9355 19.4793 36.8254 19.3299 36.5895 19.3299C36.4952 19.3299 36.3615 19.3928 36.2986 19.4635ZM36.8254 21.3821C37.1164 21.9404 37.5724 22.4121 38.1228 22.7031C38.3823 22.8446 38.5946 22.9704 38.5946 22.9783C38.5946 22.994 38.4059 23.1041 38.17 23.222C37.5331 23.5444 37.25 23.8117 36.9041 24.4172C36.7648 24.661 36.4134 24.6615 36.2734 24.4181L36.2593 24.3936C35.9055 23.796 35.6617 23.568 34.9777 23.1906C34.8019 23.0926 34.8053 22.8387 34.9835 22.7453L35.0641 22.7031C35.6932 22.365 36.0156 22.0426 36.3143 21.4529C36.448 21.1934 36.566 20.9811 36.5895 20.9811C36.6131 20.9811 36.7154 21.1619 36.8254 21.3821Z" fill="#FFFFD1"/>
</svg>
