<svg width="36" height="37" viewBox="0 0 36 37" fill="none" xmlns="http://www.w3.org/2000/svg">
<path d="M5.45173 0.111889C3.85511 0.409821 2.46476 1.2807 1.54804 2.55647C-0.124971 4.90938 -0.484019 8.67556 0.677157 11.8306C1.31886 13.58 1.57096 14.7335 1.77722 16.9566C1.94528 18.6678 2.03696 19.4241 2.21266 20.5089C2.61754 22.9611 3.69469 26.2078 4.50445 27.3995C5.53576 28.9274 7.04071 29.8059 8.81303 29.9205C9.39362 29.9511 9.57696 29.9358 9.99712 29.7906C11.3111 29.3476 12.3195 28.1253 12.7473 26.4675C12.9612 25.6578 12.9612 24.5348 12.7626 23.3736C12.3195 20.8755 12.3577 19.065 12.8619 17.9955C13.4195 16.8267 14.6724 16.8267 15.2301 17.9955C15.719 19.0192 15.7648 20.8679 15.3752 23.1444C15.1613 24.3438 15.1231 24.9549 15.1995 25.6272C15.4516 27.8426 16.7808 29.5691 18.492 29.8976C18.7491 29.9463 18.9351 30.171 18.9351 30.4326V30.6921C18.9351 31.3414 18.9504 31.4178 19.1261 31.5859C19.2789 31.7463 19.3858 31.7769 19.7373 31.7769C19.9693 31.7769 20.1574 31.965 20.1574 32.197V34.0305V36.0269C20.1574 36.1961 20.2264 36.3579 20.3484 36.475C20.4655 36.597 20.6273 36.666 20.7965 36.666H23.2131H25.6298C25.7989 36.666 25.9608 36.597 26.0779 36.475C26.1999 36.3579 26.2689 36.1961 26.2689 36.0269V34.0305V32.197C26.2689 31.965 26.457 31.7769 26.689 31.7769C27.0404 31.7769 27.1474 31.7463 27.3002 31.5859C27.4222 31.4687 27.4912 31.3069 27.4912 31.1378V29.3323V27.5268C27.4912 27.3576 27.4222 27.1958 27.3002 27.0787C27.1627 26.9335 27.0328 26.8877 26.7654 26.8877C26.5057 26.8877 26.4217 26.8571 26.4217 26.7731C26.4217 26.7043 26.8036 24.3896 27.262 21.6166C27.728 18.8435 28.1023 16.5059 28.1023 16.4218C28.1023 16.3302 28.0183 16.1774 27.9113 16.0781C27.7433 15.9024 27.6669 15.8871 27.071 15.8871C26.5821 15.8871 26.4217 15.8642 26.4217 15.7878C26.4217 15.5509 26.7349 13.962 26.9029 13.3661C27.0022 13.0071 27.2238 12.3348 27.3995 11.8688C28.385 9.20267 28.3162 6.06292 27.2238 3.7482C26.521 2.27382 25.5966 1.29598 24.3208 0.684837C23.3659 0.226479 22.793 0.0813332 21.7235 0.0202179C20.1574 -0.0638161 18.3775 0.272316 16.46 1.00569C14.5578 1.73142 14.2675 1.83073 14.0612 1.83073C13.8397 1.83073 13.2591 1.63211 11.6319 1.00569C9.36306 0.134808 7.08654 -0.193684 5.45173 0.111889ZM8.20188 1.33418C9.30958 1.50224 10.211 1.76198 11.7847 2.36549C12.5487 2.66342 13.3737 2.94608 13.6105 2.99191C14.1606 3.1065 14.6265 3.02247 15.7266 2.58703C18.1024 1.66267 19.3935 1.3189 20.8602 1.24251C23.7403 1.08972 25.7036 2.51064 26.521 5.34482C27.0939 7.3234 26.9946 9.24851 26.1925 11.6091C25.6806 13.114 25.4133 14.1453 25.2758 15.1843C25.2188 15.5874 24.8738 15.8871 24.4666 15.8871H21.9374H18.963C18.7939 15.8871 18.6321 15.956 18.515 16.0781C18.408 16.1774 18.324 16.3302 18.324 16.4218C18.324 16.5059 18.7059 18.8435 19.1643 21.6166C19.6303 24.3896 20.0046 26.7043 20.0046 26.7731C20.0046 26.8571 19.9206 26.8877 19.6609 26.8877C19.3935 26.8877 19.2636 26.9335 19.1261 27.0787C18.9504 27.2467 18.9351 27.3231 18.9351 27.9954C18.9351 28.8128 18.9504 28.7975 18.3545 28.5913C17.8656 28.4232 17.201 27.7662 16.8801 27.1321C16.3683 26.1161 16.269 25.0161 16.5517 23.4882C17.0329 20.8679 16.9489 18.6907 16.2996 17.4149C16.0322 16.8802 15.5509 16.376 15.0773 16.1315C14.7564 15.9635 14.596 15.9329 14.046 15.9329C13.4959 15.9329 13.3355 15.9635 13.0147 16.1315C12.266 16.5135 11.7389 17.2774 11.4333 18.3928C11.2882 18.897 11.2652 19.1949 11.2652 20.4707C11.2652 21.777 11.2958 22.1131 11.4868 23.1826C11.8229 25.0848 11.7542 26.055 11.2041 27.1474C10.8756 27.7968 10.2187 28.4308 9.69919 28.6065C8.60677 28.9656 6.91848 28.3697 5.94065 27.2773C4.91698 26.139 3.7176 22.602 3.27452 19.4394C3.23633 19.1414 3.12938 18.1789 3.04535 17.3004C2.77033 14.4814 2.57171 13.5036 1.93 11.7084C1.47165 10.4173 1.29594 9.62284 1.24247 8.51514C1.0744 5.47469 2.14391 2.99955 4.11485 1.83838C5.0774 1.2807 6.58999 1.08972 8.20188 1.33418ZM20.2644 17.1094C20.7019 17.1094 20.9148 17.4551 20.9882 17.8865C21.037 18.1733 21.0968 18.5298 21.1582 18.9046C21.4332 20.5929 21.5172 20.7762 21.9909 20.7762C22.2735 20.7762 22.602 20.4783 22.602 20.2262C22.602 20.1269 22.495 19.447 22.3728 18.7136C22.2506 17.9802 22.1436 17.3156 22.1436 17.2392C22.1436 17.1246 22.2429 17.1094 23.2131 17.1094C24.1833 17.1094 24.2826 17.1246 24.2826 17.2392C24.2826 17.3156 24.1757 17.9802 24.0535 18.7136C23.9312 19.447 23.8243 20.1269 23.8243 20.2262C23.8243 20.4783 24.1528 20.7762 24.4354 20.7762C24.9091 20.7762 24.9931 20.5929 25.2681 18.9046C25.3294 18.5298 25.3893 18.1733 25.4381 17.8865C25.5114 17.4551 25.7244 17.1094 26.1619 17.1094C26.6203 17.1094 26.7272 17.1323 26.7272 17.224C26.7272 17.3462 25.2299 26.4064 25.1612 26.712C25.1389 26.8145 25.0481 26.8877 24.9432 26.8877H23.2131H21.4831C21.3782 26.8877 21.2874 26.8145 21.2651 26.712C21.1964 26.4064 19.6991 17.3462 19.6991 17.224C19.6991 17.1323 19.806 17.1094 20.2644 17.1094ZM26.2689 29.3323C26.2689 30.0073 25.7216 30.5546 25.0466 30.5546H23.2131H21.3797C20.7047 30.5546 20.1574 30.0073 20.1574 29.3323C20.1574 28.6572 20.7047 28.11 21.3797 28.11H23.2131H25.0466C25.7216 28.11 26.2689 28.6572 26.2689 29.3323ZM25.0466 33.6103C25.0466 34.6229 24.2257 35.4437 23.2131 35.4437C22.2006 35.4437 21.3797 34.6229 21.3797 33.6103C21.3797 32.5977 22.2006 31.7769 23.2131 31.7769C24.2257 31.7769 25.0466 32.5977 25.0466 33.6103Z" fill="#FFFFD1"/>
<path d="M5.74198 3.82475C4.84818 4.1074 4.153 4.963 3.84743 6.13946C3.71756 6.67421 3.61825 7.85067 3.687 8.12568C3.74812 8.3625 4.13772 8.58404 4.38982 8.52293C4.74123 8.43125 4.87873 8.20971 4.87873 7.72844C4.87873 6.1471 5.4746 5.0394 6.37604 4.91717C6.91079 4.84841 7.01774 4.81022 7.17053 4.65743C7.38443 4.44353 7.36915 4.08448 7.13233 3.8553C6.90315 3.61848 6.42952 3.60321 5.74198 3.82475Z" fill="#FFFFD1"/>
<path d="M4.45832 11.1895C4.35137 11.2888 4.26733 11.4416 4.26733 11.5333C4.26733 11.6173 4.40484 12.091 4.57291 12.5799C5.00835 13.8251 5.22225 15.0015 5.45143 17.2628C5.76464 20.4484 6.08549 22.0908 6.8265 24.3673C7.20083 25.498 7.31542 25.666 7.72794 25.666C7.99532 25.666 8.31617 25.3604 8.31617 25.1007C8.31617 24.9938 8.24742 24.734 8.16339 24.5201C7.93421 23.9319 7.42237 22.1367 7.24667 21.2734C6.98693 20.0282 6.87998 19.2414 6.67372 17.2398C6.57441 16.2009 6.4369 15.0397 6.36815 14.6654C6.10077 13.1452 5.52018 11.3117 5.23753 11.1131C4.99307 10.9451 4.67222 10.9756 4.45832 11.1895Z" fill="#FFFFD1"/>
<path d="M32.0059 15.36C29.9204 15.7648 28.7134 17.0864 28.7134 18.9504C28.7134 20.3943 29.4238 21.4485 30.8753 22.1437C31.6774 22.5256 31.9524 22.7548 32.1969 23.2208C32.3268 23.4576 32.3421 23.7021 32.365 25.1841C32.3879 26.7502 32.3803 26.8877 32.258 26.8877C31.6698 26.8877 30.8142 27.56 30.6385 28.1558C30.5697 28.385 30.5468 29.5385 30.5468 32.3804V36.0269C30.5468 36.1961 30.6158 36.3579 30.7378 36.475C30.8549 36.597 31.0168 36.666 31.1859 36.666H32.9914H34.7969C34.966 36.666 35.1279 36.597 35.245 36.475C35.367 36.3579 35.436 36.1961 35.436 36.0269V32.3804C35.436 29.5844 35.4131 28.385 35.3443 28.1711C35.2144 27.7204 34.672 27.1551 34.2366 27.0099C34.038 26.9412 33.8241 26.8877 33.7477 26.8877C33.6255 26.8877 33.6102 26.7349 33.5873 25.0695L33.5715 23.8262C33.5668 23.4525 33.4809 23.0844 33.3199 22.7472C32.9608 21.9909 32.4872 21.5554 31.517 21.0895C30.2718 20.4936 29.8593 19.8672 29.9586 18.6983C30.0808 17.2087 31.2114 16.4982 33.4727 16.4982C34.4276 16.4982 34.4505 16.4906 34.6338 16.2996C34.8783 16.0322 34.8783 15.7037 34.6338 15.4669C34.4581 15.2836 34.4199 15.2759 33.3963 15.2836C32.8157 15.2912 32.1893 15.3218 32.0059 15.36ZM34.0227 28.301C34.1831 28.4538 34.2137 28.5607 34.2137 28.9121C34.2137 29.1442 34.0256 29.3323 33.7935 29.3323H32.9914H32.1893C31.9572 29.3323 31.7691 29.1442 31.7691 28.9121C31.7691 28.5607 31.7997 28.4538 31.9601 28.301C32.1358 28.1176 32.1969 28.11 32.9914 28.11C33.7859 28.11 33.847 28.1176 34.0227 28.301ZM34.2137 32.9991V34.2214C34.2137 34.8965 33.6664 35.4437 32.9914 35.4437C32.3163 35.4437 31.7691 34.8965 31.7691 34.2214V32.9991V31.7769C31.7691 31.1018 32.3163 30.5546 32.9914 30.5546C33.6664 30.5546 34.2137 31.1018 34.2137 31.7769V32.9991Z" fill="#FFFFD1"/>
</svg>
